STARTFONT 2.1
COMMENT
COMMENT Converted from OpenType font "..\ttf\ITC Avant Garde Gothic Book Condensed.otf" by "otf2bdf.exe 3.0".
COMMENT
FONT -FreeType-AvantGarde CondBook-Medium-R-Normal--44-320-100-100-P-177-ISO10646-1
SIZE 32 100 100
FONTBOUNDINGBOX 51 52 -7 -9
STARTPROPERTIES 19
FOUNDRY "FreeType"
FAMILY_NAME "AvantGarde CondBook"
WEIGHT_NAME "Medium"
SLANT "R"
SETWIDTH_NAME "Normal"
ADD_STYLE_NAME ""
PIXEL_SIZE 44
POINT_SIZE 320
RESOLUTION_X 100
RESOLUTION_Y 100
SPACING "P"
AVERAGE_WIDTH 177
CHARSET_REGISTRY "ISO10646"
CHARSET_ENCODING "1"
FONT_ASCENT 31
FONT_DESCENT 8
COPYRIGHT "Copyright (c) 1989, 1990 Adobe Systems Incorporated.  All Rights Reserved.Avant Garde Gothic is a registered trademark of International Typeface Corporation."
_OTF_FONTFILE "..\ttf\ITC Avant Garde Gothic Book Condensed.otf"
_OTF_PSNAME "AvantGarde-CondBook"
ENDPROPERTIES
CHARS 235
STARTCHAR 0020
ENCODING 32
SWIDTH 270 0
DWIDTH 12 0
BBX 0 0 0 0
BITMAP
ENDCHAR
STARTCHAR 0021
ENCODING 33
SWIDTH 225 0
DWIDTH 10 0
BBX 3 32 3 0
BITMAP
E0
E0
E0
E0
E0
E0
E0
E0
E0
E0
E0
E0
E0
E0
E0
E0
E0
E0
E0
E0
E0
E0
E0
E0
00
00
00
E0
E0
E0
E0
E0
ENDCHAR
STARTCHAR 0022
ENCODING 34
SWIDTH 337 0
DWIDTH 15 0
BBX 8 12 3 20
BITMAP
E7
E7
E7
E7
E7
E7
E7
E7
E7
E7
E7
E7
ENDCHAR
STARTCHAR 0023
ENCODING 35
SWIDTH 562 0
DWIDTH 25 0
BBX 22 32 1 0
BITMAP
00E0E0
01C0E0
01C0E0
01C0E0
01C0E0
01C1C0
01C1C0
01C1C0
0381C0
0381C0
7FFFFC
7FFFFC
7FFFFC
038380
038380
070380
070380
070380
070380
FFFFF8
FFFFF8
FFFFF8
0E0700
0E0700
0E0700
0E0700
0E0600
0E0E00
0E0E00
0E0E00
1C0E00
1C0E00
ENDCHAR
STARTCHAR 0024
ENCODING 36
SWIDTH 562 0
DWIDTH 25 0
BBX 18 40 2 -5
BITMAP
007000
007000
007000
03FC00
0FFE00
3FFF00
3C1F80
780780
F003C0
E001C0
E001C0
E001C0
E00000
F00000
700000
7C0000
3E0000
1FC000
0FF000
03FC00
007E00
001F00
000780
000380
0003C0
0001C0
0001C0
E001C0
E001C0
E001C0
F003C0
780380
3E0780
3FFF00
0FFE00
03FC00
007000
007000
007000
007000
ENDCHAR
STARTCHAR 0025
ENCODING 37
SWIDTH 900 0
DWIDTH 40 0
BBX 34 32 2 0
BITMAP
07C0018000
1FF0038000
3C78030000
701C070000
701C070000
600E0E0000
E00E0E0000
E00E1C0000
E00E1C0000
E00E180000
E00E380000
700C300000
701C700000
3838700000
1FF0E00000
0FE0E00000
0001C0FC00
0001C1FE00
0003838F00
0003870380
0003860180
00070E01C0
00070E01C0
000E0E01C0
000E0E01C0
001C0E01C0
001C0E01C0
003C070180
0038070380
003803CF00
007001FE00
007000FC00
ENDCHAR
STARTCHAR 0026
ENCODING 38
SWIDTH 607 0
DWIDTH 27 0
BBX 24 32 1 0
BITMAP
01F800
07FC00
0FFE00
0F1F00
1E0700
1C0700
1C0700
1C0700
1C0700
1C0E00
1E1E00
0F3C00
0FF800
07F007
07E007
0FE00F
1FF00E
3CF01C
78783C
707C38
E03E78
E01E70
E00FF0
E007E0
E003E0
E001E0
F003E0
7807F0
7C1F78
3FFE3C
1FFC3C
07F01E
ENDCHAR
STARTCHAR 0027
ENCODING 39
SWIDTH 225 0
DWIDTH 10 0
BBX 3 12 4 20
BITMAP
E0
E0
E0
E0
E0
E0
E0
E0
E0
E0
E0
E0
ENDCHAR
STARTCHAR 0028
ENCODING 40
SWIDTH 382 0
DWIDTH 17 0
BBX 13 41 3 -9
BITMAP
0008
0038
0078
00F0
01E0
0380
0700
0F00
1E00
1C00
3C00
3800
7800
7000
7000
7000
E000
E000
E000
E000
E000
E000
E000
E000
E000
7000
7000
7000
7800
3800
3C00
1C00
1E00
0F00
0700
0380
03E0
01F0
0078
0038
0008
ENDCHAR
STARTCHAR 0029
ENCODING 41
SWIDTH 382 0
DWIDTH 17 0
BBX 13 41 1 -9
BITMAP
8000
E000
F000
7C00
3E00
0F00
0700
0780
03C0
01C0
00E0
00E0
00F0
0070
0070
0078
0038
0038
0038
0038
0038
0038
0038
0038
0038
0070
0070
0070
0070
00E0
00E0
01C0
03C0
0380
0700
0F00
1E00
7C00
F000
E000
8000
ENDCHAR
STARTCHAR 002A
ENCODING 42
SWIDTH 450 0
DWIDTH 20 0
BBX 15 16 2 16
BITMAP
0380
0380
0380
638C
F11E
793C
1FF0
07C0
0FE0
3D78
F93E
611C
4384
0380
0380
0380
ENDCHAR
STARTCHAR 002B
ENCODING 43
SWIDTH 607 0
DWIDTH 27 0
BBX 21 21 3 1
BITMAP
007000
007000
007000
007000
007000
007000
007000
007000
007000
FFFFF8
FFFFF8
FFFFF8
007000
007000
007000
007000
007000
007000
007000
007000
007000
ENDCHAR
STARTCHAR 002C
ENCODING 44
SWIDTH 270 0
DWIDTH 12 0
BBX 8 10 0 -5
BITMAP
07
0E
0E
1C
1C
38
38
70
70
E0
ENDCHAR
STARTCHAR 002D
ENCODING 45
SWIDTH 337 0
DWIDTH 15 0
BBX 11 3 2 11
BITMAP
FFE0
FFE0
FFE0
ENDCHAR
STARTCHAR 002E
ENCODING 46
SWIDTH 270 0
DWIDTH 12 0
BBX 3 4 5 1
BITMAP
E0
E0
E0
E0
ENDCHAR
STARTCHAR 002F
ENCODING 47
SWIDTH 270 0
DWIDTH 12 0
BBX 14 32 -1 0
BITMAP
001C
0038
0038
0038
0070
0070
0070
00E0
00E0
00E0
01C0
01C0
01C0
0380
0380
0380
0700
0700
0700
0E00
0E00
0E00
1C00
1C00
1C00
3800
3800
3800
7000
7000
7000
E000
ENDCHAR
STARTCHAR 0030
ENCODING 48
SWIDTH 562 0
DWIDTH 25 0
BBX 21 32 1 0
BITMAP
01FC00
07FF00
0FFF80
1F0FC0
1E03C0
3C01E0
3800E0
780070
700070
700070
700078
E00038
E00038
E00038
E00038
E00038
E00038
E00038
E00038
E00038
E00038
F00038
700070
700070
780070
3800E0
3C01E0
1E03C0
1F87C0
0FFF80
07FF00
01FC00
ENDCHAR
STARTCHAR 0031
ENCODING 49
SWIDTH 562 0
DWIDTH 25 0
BBX 8 32 6 0
BITMAP
FF
FF
FF
07
07
07
07
07
07
07
07
07
07
07
07
07
07
07
07
07
07
07
07
07
07
07
07
07
07
07
07
07
ENDCHAR
STARTCHAR 0032
ENCODING 50
SWIDTH 562 0
DWIDTH 25 0
BBX 19 32 2 0
BITMAP
03F800
0FFE00
1FFF80
3E07C0
7803C0
7001E0
F000E0
E000E0
E000E0
E000E0
0000E0
0000E0
0001C0
0001C0
000380
000780
000F00
001E00
003C00
007800
00F000
01E000
03C000
078000
0F0000
1E0000
3C0000
380000
700000
FFFFE0
FFFFE0
FFFFE0
ENDCHAR
STARTCHAR 0033
ENCODING 51
SWIDTH 562 0
DWIDTH 25 0
BBX 20 32 1 0
BITMAP
01FC00
0FFF00
1FFF80
3C07C0
7801C0
7000E0
E000E0
E000E0
E000E0
0000E0
0000E0
0001C0
0003C0
00FF00
00FC00
00FF80
0007C0
0001E0
0000E0
0000F0
000070
000070
E00070
E00070
E00070
F00070
7000E0
7801E0
3E03C0
1FFF80
0FFF00
03FC00
ENDCHAR
STARTCHAR 0034
ENCODING 52
SWIDTH 562 0
DWIDTH 25 0
BBX 20 32 1 0
BITMAP
000F00
001F00
001F00
003F00
003F00
007700
007700
00E700
01E700
01C700
03C700
038700
078700
070700
0F0700
0E0700
1C0700
1C0700
380700
780700
700700
F00700
FFFFF0
FFFFF0
FFFFF0
000700
000700
000700
000700
000700
000700
000700
ENDCHAR
STARTCHAR 0035
ENCODING 53
SWIDTH 562 0
DWIDTH 25 0
BBX 19 32 2 0
BITMAP
3FFF80
3FFF80
3FFF80
380000
380000
380000
300000
300000
300000
300000
70F800
77FE00
7FFF00
7E0F80
7C03C0
7801C0
7001E0
7000E0
0000E0
0000E0
0000E0
0000E0
0000E0
E000E0
E000E0
F001C0
7001C0
780380
7C0F80
3FFF00
1FFE00
03F000
ENDCHAR
STARTCHAR 0036
ENCODING 54
SWIDTH 562 0
DWIDTH 25 0
BBX 20 32 2 0
BITMAP
00FC00
03FF00
0FFF80
1F07C0
1E01E0
3C00E0
3800F0
700070
700070
700000
700000
E00000
E1FC00
E7FF00
EFFF80
EF07C0
FC01E0
F800E0
F000F0
F00070
F00070
F00070
F00070
700070
700070
7000E0
3800E0
3C01E0
1F07C0
0FFF80
07FF00
01FC00
ENDCHAR
STARTCHAR 0037
ENCODING 55
SWIDTH 562 0
DWIDTH 25 0
BBX 19 32 2 0
BITMAP
FFFFE0
FFFFE0
FFFFE0
0001E0
0001C0
0001C0
0003C0
000380
000780
000780
000700
000F00
000F00
000E00
001E00
001E00
003C00
003C00
003800
007800
007800
007000
00F000
00F000
00E000
01E000
01E000
03C000
03C000
03C000
078000
078000
ENDCHAR
STARTCHAR 0038
ENCODING 56
SWIDTH 562 0
DWIDTH 25 0
BBX 19 32 2 0
BITMAP
03F800
0FFE00
1FFF00
3E0F80
380380
7803C0
7001C0
7001C0
7001C0
7001C0
7803C0
3C0380
3E0F00
1FFE00
07FC00
1FFF00
3E0F80
7803C0
7001C0
F001E0
E000E0
E000E0
E000E0
E000E0
E000E0
F001E0
7001C0
7803C0
3E0F80
1FFF00
0FFE00
03F800
ENDCHAR
STARTCHAR 0039
ENCODING 57
SWIDTH 562 0
DWIDTH 25 0
BBX 20 32 2 0
BITMAP
01F800
0FFE00
1FFF00
3F0F80
3C03C0
7801C0
7001E0
F000E0
E000E0
E000F0
E000F0
E000F0
E000F0
F000F0
7000F0
7801F0
7803F0
3E0FF0
1FFF70
0FFE70
03F870
000070
0000E0
E000E0
E000E0
F001C0
F001C0
780380
3E0F80
3FFF00
0FFE00
03F000
ENDCHAR
STARTCHAR 003A
ENCODING 58
SWIDTH 270 0
DWIDTH 12 0
BBX 3 20 5 0
BITMAP
E0
E0
E0
E0
00
00
00
00
00
00
00
00
00
00
00
00
E0
E0
E0
E0
ENDCHAR
STARTCHAR 003B
ENCODING 59
SWIDTH 270 0
DWIDTH 12 0
BBX 8 25 0 -5
BITMAP
0F
0F
0F
0F
00
00
00
00
00
00
00
00
00
00
00
0F
0E
0E
1C
1C
38
38
70
60
E0
ENDCHAR
STARTCHAR 003C
ENCODING 60
SWIDTH 607 0
DWIDTH 27 0
BBX 22 22 2 0
BITMAP
00000C
00003C
0000FC
0007F8
001FE0
007F00
01FC00
07F000
1FC000
FE0000
F80000
F80000
7F0000
1FC000
07F000
01FC00
007F80
001FE0
0003F8
0000FC
00003C
00000C
ENDCHAR
STARTCHAR 003D
ENCODING 61
SWIDTH 607 0
DWIDTH 27 0
BBX 22 12 2 5
BITMAP
FFFFFC
FFFFFC
FFFFFC
000000
000000
000000
000000
000000
000000
FFFFFC
FFFFFC
FFFFFC
ENDCHAR
STARTCHAR 003E
ENCODING 62
SWIDTH 607 0
DWIDTH 27 0
BBX 22 23 2 0
BITMAP
800000
E00000
F80000
FE0000
3F8000
0FE000
03FC00
007F00
001FC0
0007F0
0001FC
00003C
0000FC
0003F8
001FC0
007F00
01FC00
07F000
3FC000
FF0000
F80000
E00000
800000
ENDCHAR
STARTCHAR 003F
ENCODING 63
SWIDTH 450 0
DWIDTH 20 0
BBX 17 32 1 0
BITMAP
07F000
1FFC00
3FFE00
781F00
700700
F00780
E00380
E00380
E00380
E00380
000380
000700
000F00
001E00
007C00
00F800
01F000
03C000
03C000
038000
038000
038000
038000
038000
000000
000000
000000
038000
038000
038000
038000
038000
ENDCHAR
STARTCHAR 0040
ENCODING 64
SWIDTH 810 0
DWIDTH 36 0
BBX 31 32 2 0
BITMAP
000FF000
007FFE00
00FFFF80
03E007C0
078001E0
0F0000F0
1E000078
1C07E03C
381FF39C
383FFF1C
707C3F0E
70F01F0E
F0E01F0E
E1E00E0E
E1C00E0E
E1C00E0E
E3801C0E
E3801C1C
E3801C1C
E3803C3C
73807838
73C07870
79E1F8E0
39FFFFC0
3CFFBF80
1E3E1E38
0F000078
078000F0
03F003E0
01FFFF80
007FFE00
000FF000
ENDCHAR
STARTCHAR 0041
ENCODING 65
SWIDTH 495 0
DWIDTH 22 0
BBX 22 32 0 0
BITMAP
00F800
00FC00
00FC00
00FC00
01DC00
01CE00
01CE00
01CE00
038F00
038700
038700
038700
070780
070380
070380
0E0380
0E03C0
0E01C0
0E01C0
1FFFE0
1FFFE0
1FFFE0
1C00E0
3800F0
380070
380070
700070
700038
700038
700038
E0003C
E0001C
ENDCHAR
STARTCHAR 0042
ENCODING 66
SWIDTH 562 0
DWIDTH 25 0
BBX 19 32 3 0
BITMAP
FFF800
FFFE00
FFFF00
E00F80
E00380
E003C0
E001C0
E001C0
E001C0
E001C0
E001C0
E003C0
E00380
E00F80
FFFF00
FFFC00
FFFF00
E00F80
E003C0
E001C0
E000E0
E000E0
E000E0
E000E0
E000E0
E000E0
E001E0
E001C0
E007C0
FFFF80
FFFF00
FFFC00
ENDCHAR
STARTCHAR 0043
ENCODING 67
SWIDTH 562 0
DWIDTH 25 0
BBX 21 32 1 0
BITMAP
00FC00
03FF00
0FFF80
1F03C0
1C01E0
3800F0
380070
700070
700038
700038
600038
E00038
E00000
E00000
E00000
E00000
E00000
E00000
E00000
E00000
E00000
700038
700038
700038
780038
380070
3C0070
1E00E0
1F03E0
0FFFC0
07FF00
01FC00
ENDCHAR
STARTCHAR 0044
ENCODING 68
SWIDTH 607 0
DWIDTH 27 0
BBX 22 32 3 0
BITMAP
FFF800
FFFF00
FFFF80
E007C0
E001E0
E000F0
E00070
E00078
E00038
E00038
E00038
E0001C
E0001C
E0001C
E0001C
E0001C
E0001C
E0001C
E0001C
E0001C
E0001C
E00038
E00038
E00038
E00078
E00070
E000F0
E001E0
E007C0
FFFF80
FFFF00
FFF800
ENDCHAR
STARTCHAR 0045
ENCODING 69
SWIDTH 495 0
DWIDTH 22 0
BBX 15 32 3 0
BITMAP
FFFE
FFFE
FFFE
E000
E000
E000
E000
E000
E000
E000
E000
E000
E000
E000
FFFE
FFFE
FFFE
E000
E000
E000
E000
E000
E000
E000
E000
E000
E000
E000
E000
FFFE
FFFE
FFFE
ENDCHAR
STARTCHAR 0046
ENCODING 70
SWIDTH 450 0
DWIDTH 20 0
BBX 14 32 3 0
BITMAP
FFFC
FFFC
FFFC
E000
E000
E000
E000
E000
E000
E000
E000
E000
E000
E000
FFFC
FFFC
FFFC
E000
E000
E000
E000
E000
E000
E000
E000
E000
E000
E000
E000
E000
E000
E000
ENDCHAR
STARTCHAR 0047
ENCODING 71
SWIDTH 607 0
DWIDTH 27 0
BBX 23 32 1 0
BITMAP
00FE00
03FFC0
07FFE0
0F01F0
1E00F8
3C0078
380038
70003C
70001C
70001C
600000
E00000
E00000
E00000
E00000
E00000
E07FFE
E07FFE
E07FFE
E0000E
E0000E
70000E
70000E
70000E
70001E
38001C
3C003C
1E0078
0F00F0
0FFFE0
03FFC0
00FE00
ENDCHAR
STARTCHAR 0048
ENCODING 72
SWIDTH 607 0
DWIDTH 27 0
BBX 20 32 3 0
BITMAP
E00070
E00070
E00070
E00070
E00070
E00070
E00070
E00070
E00070
E00070
E00070
E00070
E00070
E00070
FFFFF0
FFFFF0
FFFFF0
E00070
E00070
E00070
E00070
E00070
E00070
E00070
E00070
E00070
E00070
E00070
E00070
E00070
E00070
E00070
ENDCHAR
STARTCHAR 0049
ENCODING 73
SWIDTH 225 0
DWIDTH 10 0
BBX 3 32 3 0
BITMAP
E0
E0
E0
E0
E0
E0
E0
E0
E0
E0
E0
E0
E0
E0
E0
E0
E0
E0
E0
E0
E0
E0
E0
E0
E0
E0
E0
E0
E0
E0
E0
E0
ENDCHAR
STARTCHAR 004A
ENCODING 74
SWIDTH 450 0
DWIDTH 20 0
BBX 16 32 0 0
BITMAP
0007
0007
0007
0007
0007
0007
0007
0007
0007
0007
0007
0007
0007
0007
0007
0007
0007
0007
0007
0007
0007
0007
0007
0007
E007
E007
E007
700E
781E
3FFC
1FF8
0FE0
ENDCHAR
STARTCHAR 004B
ENCODING 75
SWIDTH 562 0
DWIDTH 25 0
BBX 20 32 3 0
BITMAP
E003C0
E003C0
E00780
E00F00
E00E00
E01E00
E03C00
E03800
E07800
E0F000
E1E000
E1C000
E3C000
E7E000
E7E000
EEF000
FEF000
FC7800
F83800
F83C00
F01C00
E01E00
E00F00
E00F00
E00780
E00780
E003C0
E003C0
E001E0
E001E0
E000F0
E000F0
ENDCHAR
STARTCHAR 004C
ENCODING 76
SWIDTH 450 0
DWIDTH 20 0
BBX 15 32 3 0
BITMAP
E000
E000
E000
E000
E000
E000
E000
E000
E000
E000
E000
E000
E000
E000
E000
E000
E000
E000
E000
E000
E000
E000
E000
E000
E000
E000
E000
E000
E000
FFFE
FFFE
FFFE
ENDCHAR
STARTCHAR 004D
ENCODING 77
SWIDTH 720 0
DWIDTH 32 0
BBX 25 32 3 0
BITMAP
F8000F80
F8000F80
F8000F80
FC001F80
FC001F80
FC001F80
FE001F80
EE003B80
EE003B80
EF003B80
E7007380
E7007380
E7807380
E3807380
E380E380
E380E380
E3C0E380
E1C1C380
E1C1C380
E1E1C380
E0E1C380
E0E38380
E0F38380
E0738380
E0770380
E07F0380
E03F0380
E03E0380
E03E0380
E01E0380
E01E0380
E01C0380
ENDCHAR
STARTCHAR 004E
ENCODING 78
SWIDTH 607 0
DWIDTH 27 0
BBX 20 32 3 0
BITMAP
F00070
F00070
F80070
F80070
FC0070
FC0070
FE0070
EF0070
EF0070
E78070
E78070
E3C070
E3C070
E1E070
E1E070
E0F070
E07870
E07870
E03C70
E03C70
E01E70
E01E70
E00F70
E00F70
E007F0
E003F0
E003F0
E001F0
E001F0
E000F0
E000F0
E00070
ENDCHAR
STARTCHAR 004F
ENCODING 79
SWIDTH 607 0
DWIDTH 27 0
BBX 24 32 1 0
BITMAP
007F00
03FFC0
07FFE0
0F01F0
1E0078
3C003C
38001C
78000E
70000E
70000E
700007
E00007
E00007
E00007
E00007
E00007
E00007
E00007
E00007
E00007
E00007
700007
70000E
70000E
78000E
38001C
3C003C
1E0078
0F80F0
07FFE0
03FFC0
00FF00
ENDCHAR
STARTCHAR 0050
ENCODING 80
SWIDTH 562 0
DWIDTH 25 0
BBX 19 32 3 0
BITMAP
FFF800
FFFE00
FFFF80
E00780
E003C0
E001C0
E000E0
E000E0
E000E0
E000E0
E000E0
E000E0
E000E0
E001C0
E003C0
E00780
FFFF80
FFFE00
FFF800
E00000
E00000
E00000
E00000
E00000
E00000
E00000
E00000
E00000
E00000
E00000
E00000
E00000
ENDCHAR
STARTCHAR 0051
ENCODING 81
SWIDTH 607 0
DWIDTH 27 0
BBX 25 32 1 0
BITMAP
007F0000
03FFC000
07FFE000
0F01F000
1E007800
3C003C00
38001C00
78000E00
70000E00
70000E00
70000700
E0000700
E0000700
E0000700
E0000700
E0000700
E0000700
E0000700
E0000700
E0000700
E0000700
7FE00700
7FF80E00
7FFE0E00
781F0E00
380F9E00
3C07FC00
1E03FC00
0F81F800
07FFFF80
03FFFF80
00FF1F80
ENDCHAR
STARTCHAR 0052
ENCODING 82
SWIDTH 562 0
DWIDTH 25 0
BBX 19 32 3 0
BITMAP
FFF800
FFFE00
FFFF80
E00780
E003C0
E001C0
E000E0
E000E0
E000E0
E000E0
E000E0
E000E0
E000E0
E001C0
E003C0
E007C0
E3FF80
E1FF00
E1FC00
E0F000
E07000
E07800
E03C00
E01C00
E01E00
E00F00
E00700
E00780
E003C0
E001C0
E001E0
E000E0
ENDCHAR
STARTCHAR 0053
ENCODING 83
SWIDTH 495 0
DWIDTH 22 0
BBX 20 32 1 0
BITMAP
03F800
0FFE00
3FFF80
7C0780
7003C0
F001C0
E000E0
E000E0
E000E0
E00000
F00000
780000
7C0000
3F8000
1FF000
07FE00
00FF80
001FC0
0007E0
0001E0
0000F0
000070
E00070
E00070
E00070
E00070
7000E0
7801E0
3C03C0
3FFF80
0FFF00
03F800
ENDCHAR
STARTCHAR 0054
ENCODING 84
SWIDTH 450 0
DWIDTH 20 0
BBX 19 32 0 0
BITMAP
FFFFE0
FFFFE0
FFFFE0
00E000
00E000
00E000
00E000
00E000
00E000
00E000
00E000
00E000
00E000
00E000
00E000
00E000
00E000
00E000
00E000
00E000
00E000
00E000
00E000
00E000
00E000
00E000
00E000
00E000
00E000
00E000
00E000
00E000
ENDCHAR
STARTCHAR 0055
ENCODING 85
SWIDTH 562 0
DWIDTH 25 0
BBX 18 32 3 0
BITMAP
E001C0
E001C0
E001C0
E001C0
E001C0
E001C0
E001C0
E001C0
E001C0
E001C0
E001C0
E001C0
E001C0
E001C0
E001C0
E001C0
E001C0
E001C0
E001C0
E001C0
E001C0
E001C0
E001C0
E001C0
E001C0
E001C0
F003C0
780780
7C0F80
3FFF00
1FFE00
07F800
ENDCHAR
STARTCHAR 0056
ENCODING 86
SWIDTH 495 0
DWIDTH 22 0
BBX 22 32 0 0
BITMAP
E0001C
F0003C
700038
700038
780038
380078
380070
380070
3C0070
1C00F0
1C00E0
1C00E0
0E00E0
0E01C0
0E01C0
0F01C0
0701C0
070380
070380
038380
038380
038700
038700
01C700
01C700
01CE00
01EE00
00EE00
00EE00
00FC00
007C00
007C00
ENDCHAR
STARTCHAR 0057
ENCODING 87
SWIDTH 832 0
DWIDTH 37 0
BBX 36 32 0 0
BITMAP
F000F00070
7000F000F0
7001F800E0
7001F800E0
7801F800E0
3801F801E0
3801D801C0
3801DC01C0
3C039C01C0
1C039C0380
1C039C0380
1E039C0380
0E038E0780
0E038E0700
0E070E0700
0F070E0700
07070E0E00
0707070E00
0707070E00
0387070E00
038E071C00
038E071C00
03CE071C00
01CE039C00
01CE03B800
01DC03B800
01FC03B800
00FC03B000
00FC01F000
00FC01F000
007C01F000
007801E000
ENDCHAR
STARTCHAR 0058
ENCODING 88
SWIDTH 495 0
DWIDTH 22 0
BBX 22 32 0 0
BITMAP
7800F0
3C00F0
3C01E0
1E01E0
1E01C0
0F03C0
0F0380
078780
078700
03CF00
03CE00
01FE00
01FC00
00FC00
00F800
007800
00FC00
00FC00
01FE00
01CE00
03CF00
038700
078780
0F0380
0F03C0
1E01E0
1E01E0
3C00F0
3C00F0
780078
780038
F0003C
ENDCHAR
STARTCHAR 0059
ENCODING 89
SWIDTH 495 0
DWIDTH 22 0
BBX 21 32 0 0
BITMAP
F00078
700070
7800F0
3800E0
3C01E0
1C01C0
1E03C0
1E0380
0E0380
0F0780
070700
078F00
038E00
03DE00
01DC00
01DC00
00F800
00F800
007000
007000
007000
007000
007000
007000
007000
007000
007000
007000
007000
007000
007000
007000
ENDCHAR
STARTCHAR 005A
ENCODING 90
SWIDTH 450 0
DWIDTH 20 0
BBX 18 32 1 0
BITMAP
FFFFC0
FFFFC0
FFFFC0
000780
000780
000F00
000F00
001E00
001E00
003C00
003C00
007800
007800
00F000
00F000
01E000
01E000
03C000
03C000
078000
078000
0F0000
0F0000
1E0000
1E0000
3C0000
380000
780000
F00000
FFFFC0
FFFFC0
FFFFC0
ENDCHAR
STARTCHAR 005B
ENCODING 91
SWIDTH 382 0
DWIDTH 17 0
BBX 11 40 4 -8
BITMAP
FFE0
FFE0
FFE0
E000
E000
E000
E000
E000
E000
E000
E000
E000
E000
E000
E000
E000
E000
E000
E000
E000
E000
E000
E000
E000
E000
E000
E000
E000
E000
E000
E000
E000
E000
E000
E000
E000
E000
FFE0
FFE0
FFE0
ENDCHAR
STARTCHAR 005C
ENCODING 92
SWIDTH 270 0
DWIDTH 12 0
BBX 14 32 -1 0
BITMAP
E000
F000
7000
7000
7800
3800
3800
1C00
1C00
1C00
0E00
0E00
0E00
0700
0700
0700
0380
0380
0380
01C0
01C0
01C0
00E0
00E0
00E0
0070
0070
0070
0038
0038
0038
001C
ENDCHAR
STARTCHAR 005D
ENCODING 93
SWIDTH 382 0
DWIDTH 17 0
BBX 11 40 1 -8
BITMAP
FFE0
FFE0
FFE0
00E0
00E0
00E0
00E0
00E0
00E0
00E0
00E0
00E0
00E0
00E0
00E0
00E0
00E0
00E0
00E0
00E0
00E0
00E0
00E0
00E0
00E0
00E0
00E0
00E0
00E0
00E0
00E0
00E0
00E0
00E0
00E0
00E0
00E0
FFE0
FFE0
FFE0
ENDCHAR
STARTCHAR 005E
ENCODING 94
SWIDTH 607 0
DWIDTH 27 0
BBX 21 19 3 12
BITMAP
00F000
00F000
01F800
01F800
03FC00
039C00
079E00
070E00
0F0F00
0E0700
1E0780
1C0380
3C03C0
3801C0
7801E0
7000E0
7000F0
E00070
E00078
ENDCHAR
STARTCHAR 005F
ENCODING 95
SWIDTH 495 0
DWIDTH 22 0
BBX 22 2 0 -6
BITMAP
FFFFFC
FFFFFC
ENDCHAR
STARTCHAR 0060
ENCODING 96
SWIDTH 225 0
DWIDTH 10 0
BBX 8 6 -1 27
BITMAP
F0
70
38
1C
0E
07
ENDCHAR
STARTCHAR 0061
ENCODING 97
SWIDTH 495 0
DWIDTH 22 0
BBX 18 24 1 0
BITMAP
03F1C0
0FF9C0
1FFDC0
3C0FC0
3807C0
7003C0
7003C0
F001C0
E001C0
E001C0
E001C0
E001C0
E001C0
E001C0
E001C0
E001C0
F001C0
7003C0
7003C0
3807C0
3C0FC0
1FFDC0
0FF9C0
03F1C0
ENDCHAR
STARTCHAR 0062
ENCODING 98
SWIDTH 495 0
DWIDTH 22 0
BBX 17 32 3 0
BITMAP
E00000
E00000
E00000
E00000
E00000
E00000
E00000
E00000
E3F000
EFF800
FFFC00
FC1E00
F80F00
F00700
F00700
E00380
E00380
E00380
E00380
E00380
E00380
E00380
E00380
E00380
E00380
F00700
F00700
F80F00
FC1E00
FFFC00
EFF800
E3E000
ENDCHAR
STARTCHAR 0063
ENCODING 99
SWIDTH 450 0
DWIDTH 20 0
BBX 17 24 1 0
BITMAP
03F000
0FFC00
1FFE00
3C1F00
780700
700780
700380
F00380
E00380
E00000
E00000
E00000
E00000
E00000
E00000
E00380
F00380
700380
780780
780700
3E0F00
1FFE00
0FFC00
03F000
ENDCHAR
STARTCHAR 0064
ENCODING 100
SWIDTH 495 0
DWIDTH 22 0
BBX 18 32 1 0
BITMAP
0001C0
0001C0
0001C0
0001C0
0001C0
0001C0
0001C0
0001C0
03F1C0
0FFDC0
1FFFC0
3C0FC0
3807C0
7003C0
7003C0
7001C0
E001C0
E001C0
E001C0
E001C0
E001C0
E001C0
E001C0
E001C0
F001C0
7003C0
7003C0
3807C0
3C0FC0
1FFFC0
0FFDC0
03F1C0
ENDCHAR
STARTCHAR 0065
ENCODING 101
SWIDTH 450 0
DWIDTH 20 0
BBX 17 24 1 0
BITMAP
03F000
0FFC00
1FFE00
3C1E00
380F00
700700
700780
600380
E00380
E00380
FFFF80
FFFF80
FFFF80
E00000
E00000
E00380
700380
700380
780700
380700
3E1E00
1FFE00
0FF800
03F000
ENDCHAR
STARTCHAR 0066
ENCODING 102
SWIDTH 225 0
DWIDTH 10 0
BBX 10 32 0 0
BITMAP
07C0
0FC0
0FC0
1C00
1C00
1C00
1C00
1C00
FFC0
FFC0
FFC0
1C00
1C00
1C00
1C00
1C00
1C00
1C00
1C00
1C00
1C00
1C00
1C00
1C00
1C00
1C00
1C00
1C00
1C00
1C00
1C00
1C00
ENDCHAR
STARTCHAR 0067
ENCODING 103
SWIDTH 495 0
DWIDTH 22 0
BBX 18 33 1 -9
BITMAP
03F1C0
0FFDC0
1FFDC0
3C0FC0
3807C0
7003C0
7003C0
F001C0
E001C0
E001C0
E001C0
E001C0
E001C0
E001C0
E001C0
E001C0
F001C0
7003C0
7003C0
7807C0
3C0FC0
1FFDC0
0FF9C0
03F1C0
0001C0
E001C0
E001C0
F001C0
700380
7C0780
3FFF00
1FFE00
07F800
ENDCHAR
STARTCHAR 0068
ENCODING 104
SWIDTH 495 0
DWIDTH 22 0
BBX 16 32 3 0
BITMAP
E000
E000
E000
E000
E000
E000
E000
E000
E3F0
EFFC
FFFE
FC1E
F80F
F007
E007
E007
E007
E007
E007
E007
E007
E007
E007
E007
E007
E007
E007
E007
E007
E007
E007
E007
ENDCHAR
STARTCHAR 0069
ENCODING 105
SWIDTH 225 0
DWIDTH 10 0
BBX 3 31 3 1
BITMAP
E0
E0
E0
00
00
00
00
E0
E0
E0
E0
E0
E0
E0
E0
E0
E0
E0
E0
E0
E0
E0
E0
E0
E0
E0
E0
E0
E0
E0
E0
ENDCHAR
STARTCHAR 006A
ENCODING 106
SWIDTH 225 0
DWIDTH 10 0
BBX 8 41 -2 -9
BITMAP
07
07
07
07
00
00
00
00
07
07
07
07
07
07
07
07
07
07
07
07
07
07
07
07
07
07
07
07
07
07
07
07
07
07
07
07
07
0F
FE
FE
F8
ENDCHAR
STARTCHAR 006B
ENCODING 107
SWIDTH 450 0
DWIDTH 20 0
BBX 16 32 3 0
BITMAP
E000
E000
E000
E000
E000
E000
E000
E000
E01E
E03C
E038
E078
E0F0
E0E0
E1C0
E3C0
E380
E780
EFC0
EDC0
FDE0
F8E0
F0F0
F070
E078
E038
E03C
E01C
E01E
E00E
E00E
E00F
ENDCHAR
STARTCHAR 006C
ENCODING 108
SWIDTH 225 0
DWIDTH 10 0
BBX 3 32 3 0
BITMAP
E0
E0
E0
E0
E0
E0
E0
E0
E0
E0
E0
E0
E0
E0
E0
E0
E0
E0
E0
E0
E0
E0
E0
E0
E0
E0
E0
E0
E0
E0
E0
E0
ENDCHAR
STARTCHAR 006D
ENCODING 109
SWIDTH 787 0
DWIDTH 35 0
BBX 28 24 3 0
BITMAP
E3E03F00
EFF8FFC0
EFFDFFE0
F83FC1E0
F01F00F0
F00F0070
E00E0070
E00E0070
E00E0070
E00E0070
E00E0070
E00E0070
E00E0070
E00E0070
E00E0070
E00E0070
E00E0070
E00E0070
E00E0070
E00E0070
E00E0070
E00E0070
E00E0070
E00E0070
ENDCHAR
STARTCHAR 006E
ENCODING 110
SWIDTH 495 0
DWIDTH 22 0
BBX 16 24 3 0
BITMAP
E3F0
EFFC
EFFE
FC1E
F80F
F007
E007
E007
E007
E007
E007
E007
E007
E007
E007
E007
E007
E007
E007
E007
E007
E007
E007
E007
ENDCHAR
STARTCHAR 006F
ENCODING 111
SWIDTH 495 0
DWIDTH 22 0
BBX 19 24 1 0
BITMAP
03F800
0FFE00
1FFF00
3E0F80
380380
7803C0
7001C0
7001E0
E000E0
E000E0
E000E0
E000E0
E000E0
E000E0
E000E0
E000E0
F001E0
7001C0
7803C0
380380
3E0F80
1FFF00
0FFE00
03F800
ENDCHAR
STARTCHAR 0070
ENCODING 112
SWIDTH 495 0
DWIDTH 22 0
BBX 17 33 3 -9
BITMAP
E3F000
EFF800
FFFC00
FC1E00
F80F00
F00700
F00700
E00380
E00380
E00380
E00380
E00380
E00380
E00380
E00380
E00380
E00380
F00700
F00700
F80F00
FC1E00
FFFC00
EFF800
E3E000
E00000
E00000
E00000
E00000
E00000
E00000
E00000
E00000
E00000
ENDCHAR
STARTCHAR 0071
ENCODING 113
SWIDTH 495 0
DWIDTH 22 0
BBX 18 33 1 -9
BITMAP
03F1C0
0FFDC0
1FFFC0
3C0FC0
3807C0
7003C0
7003C0
7001C0
E001C0
E001C0
E001C0
E001C0
E001C0
E001C0
E001C0
E001C0
F001C0
7003C0
7003C0
3807C0
3C0FC0
1FFFC0
0FFDC0
03F1C0
0001C0
0001C0
0001C0
0001C0
0001C0
0001C0
0001C0
0001C0
0001C0
ENDCHAR
STARTCHAR 0072
ENCODING 114
SWIDTH 270 0
DWIDTH 12 0
BBX 9 24 3 0
BITMAP
E380
EF80
FF80
FC00
F800
F000
E000
E000
E000
E000
E000
E000
E000
E000
E000
E000
E000
E000
E000
E000
E000
E000
E000
E000
ENDCHAR
STARTCHAR 0073
ENCODING 115
SWIDTH 450 0
DWIDTH 20 0
BBX 16 24 1 0
BITMAP
07F0
1FFC
3FFE
3C1E
780F
7007
7007
7000
7800
3E00
3FC0
1FF8
07FC
007E
001F
000F
0007
E007
E007
F00F
781E
3FFC
1FF8
07E0
ENDCHAR
STARTCHAR 0074
ENCODING 116
SWIDTH 225 0
DWIDTH 10 0
BBX 10 31 0 1
BITMAP
1C00
1C00
1C00
1C00
1C00
1C00
1C00
FFC0
FFC0
FFC0
1C00
1C00
1C00
1C00
1C00
1C00
1C00
1C00
1C00
1C00
1C00
1C00
1C00
1C00
1C00
1C00
1C00
1C00
1C00
1C00
1C00
ENDCHAR
STARTCHAR 0075
ENCODING 117
SWIDTH 495 0
DWIDTH 22 0
BBX 16 24 3 0
BITMAP
E007
E007
E007
E007
E007
E007
E007
E007
E007
E007
E007
E007
E007
E007
E007
E007
E007
E007
E00F
F00F
783F
7FF7
3FF7
0FC7
ENDCHAR
STARTCHAR 0076
ENCODING 118
SWIDTH 450 0
DWIDTH 20 0
BBX 18 24 0 0
BITMAP
F003C0
F003C0
700380
700380
780780
380700
380700
3C0F00
3C0E00
1C0E00
1C0E00
1E1E00
0E1C00
0E1C00
0E1C00
0F3800
073800
073800
077000
03F000
03F000
03F000
03E000
01E000
ENDCHAR
STARTCHAR 0077
ENCODING 119
SWIDTH 675 0
DWIDTH 30 0
BBX 29 24 0 0
BITMAP
E0078038
F00F8078
700F8070
700F8070
780DC070
380DC0E0
381DC0E0
381DC0E0
3C1CC0E0
1C18E1C0
1C18E1C0
1C18E1C0
0E38E1C0
0E386380
0E307380
0E307380
07307300
07707700
07703700
07703F00
03E03E00
03E03E00
03E03E00
01E01E00
ENDCHAR
STARTCHAR 0078
ENCODING 120
SWIDTH 450 0
DWIDTH 20 0
BBX 19 24 0 0
BITMAP
7803C0
3C0380
3C0780
1E0700
0E0F00
0F1E00
071C00
07BC00
03F800
01F800
01F000
00F000
01F000
03F800
03B800
07BC00
071E00
0F1E00
1E0F00
1C0700
3C0780
3803C0
7803C0
F001E0
ENDCHAR
STARTCHAR 0079
ENCODING 121
SWIDTH 450 0
DWIDTH 20 0
BBX 19 33 0 -9
BITMAP
E001E0
F001E0
7001C0
7003C0
7803C0
380380
380380
3C0780
1C0700
1C0700
1C0F00
0E0E00
0E0E00
0E0E00
071C00
071C00
071C00
073800
03B800
03B800
03F000
01F000
01F000
01E000
00E000
01E000
01C000
01C000
03C000
038000
038000
078000
070000
ENDCHAR
STARTCHAR 007A
ENCODING 122
SWIDTH 450 0
DWIDTH 20 0
BBX 17 24 1 0
BITMAP
7FFF80
7FFF80
7FFF80
000780
000F00
001E00
003E00
003C00
007800
00F800
00F000
01E000
03C000
03C000
078000
0F0000
0F0000
1E0000
3C0000
780000
780000
FFFF80
FFFF80
FFFF80
ENDCHAR
STARTCHAR 007B
ENCODING 123
SWIDTH 382 0
DWIDTH 17 0
BBX 13 41 2 -9
BITMAP
0FF8
1FF8
3FF8
3800
3800
3800
3800
3800
3800
3800
3800
3800
3800
3800
3800
3800
3800
3800
7800
F000
E000
F000
7800
3800
3800
3800
3800
3800
3800
3800
3800
3800
3800
3800
3800
3800
3800
3800
3FF8
1FF8
0FF8
ENDCHAR
STARTCHAR 007C
ENCODING 124
SWIDTH 225 0
DWIDTH 10 0
BBX 3 32 3 0
BITMAP
E0
E0
E0
E0
E0
E0
E0
E0
E0
E0
E0
E0
E0
E0
E0
E0
E0
E0
E0
E0
E0
E0
E0
E0
E0
E0
E0
E0
E0
E0
E0
E0
ENDCHAR
STARTCHAR 007D
ENCODING 125
SWIDTH 382 0
DWIDTH 17 0
BBX 13 41 1 -9
BITMAP
FF80
FFC0
FFE0
00E0
00E0
00E0
00E0
00E0
00E0
00E0
00E0
00E0
00E0
00E0
00E0
00E0
00E0
00E0
00F0
0078
0038
0078
00F0
00E0
00E0
00E0
00E0
00E0
00E0
00E0
00E0
00E0
00E0
00E0
00E0
00E0
00E0
00E0
FFE0
FFC0
FF80
ENDCHAR
STARTCHAR 007E
ENCODING 126
SWIDTH 607 0
DWIDTH 27 0
BBX 20 6 3 8
BITMAP
1F0020
3FE070
7FF8F0
E0FFE0
403FC0
400F80
ENDCHAR
STARTCHAR 00A0
ENCODING 160
SWIDTH 270 0
DWIDTH 12 0
BBX 0 0 0 0
BITMAP
ENDCHAR
STARTCHAR 00A1
ENCODING 161
SWIDTH 225 0
DWIDTH 10 0
BBX 3 32 3 -8
BITMAP
E0
E0
E0
E0
E0
00
00
00
E0
E0
E0
E0
E0
E0
E0
E0
E0
E0
E0
E0
E0
E0
E0
E0
E0
E0
E0
E0
E0
E0
E0
E0
ENDCHAR
STARTCHAR 00A2
ENCODING 162
SWIDTH 562 0
DWIDTH 25 0
BBX 17 32 3 0
BITMAP
00E000
00E000
00E000
00E000
03F800
0FFC00
1FFE00
3C0F00
380700
700380
700380
600380
E00380
E00000
E00000
E00000
E00000
E00000
E00000
E00000
700380
700380
700380
380700
3C0F00
1FFE00
0FFC00
03F000
00E000
00E000
00E000
00E000
ENDCHAR
STARTCHAR 00A3
ENCODING 163
SWIDTH 562 0
DWIDTH 25 0
BBX 21 32 1 0
BITMAP
01F800
07FF00
0FFF80
1F0FC0
3C01E0
3800E0
380070
700070
700000
700000
700000
700000
780000
380000
FFFF80
FFFF80
FFFF80
0F0000
078000
038000
038000
01C038
01C038
01C038
01C038
01C038
01C078
03C0F0
0383F0
7FFFE0
7FFFC0
7FFE00
ENDCHAR
STARTCHAR 00A4
ENCODING 164
SWIDTH 562 0
DWIDTH 25 0
BBX 22 22 1 5
BITMAP
40FE08
E7FF9C
7FFFF8
3F03F0
3C00F0
780078
700038
70003C
E0001C
E0001C
E0001C
E0001C
E0001C
E0001C
F0003C
700038
780078
3C00F0
3F03F0
7FFFF8
E7FF9C
41FC08
ENDCHAR
STARTCHAR 00A5
ENCODING 165
SWIDTH 562 0
DWIDTH 25 0
BBX 21 32 1 0
BITMAP
F00078
7800F0
7800F0
3800E0
3C01E0
1C01C0
1E03C0
1E03C0
0E0380
0F0780
070700
078F00
7F8FF0
7F8FF0
7FDFF0
01DC00
00F800
00F800
007000
7FFFF0
7FFFF0
7FFFF0
007000
007000
007000
007000
007000
007000
007000
007000
007000
007000
ENDCHAR
STARTCHAR 00A6
ENCODING 166
SWIDTH 225 0
DWIDTH 10 0
BBX 3 32 3 0
BITMAP
E0
E0
E0
E0
E0
E0
E0
E0
E0
E0
E0
E0
00
00
00
00
00
00
00
00
E0
E0
E0
E0
E0
E0
E0
E0
E0
E0
E0
E0
ENDCHAR
STARTCHAR 00A7
ENCODING 167
SWIDTH 450 0
DWIDTH 20 0
BBX 16 35 2 -4
BITMAP
03E0
0FF0
0F78
1C1C
1C08
1C00
1C00
0E00
0F00
0780
1FC0
7FE0
71F0
E078
E078
E03C
F01E
700E
780F
3C07
1E07
0F07
078F
03FE
01FC
00F0
0078
0038
003C
001C
101C
381C
3C38
1FF8
07E0
ENDCHAR
STARTCHAR 00A8
ENCODING 168
SWIDTH 225 0
DWIDTH 10 0
BBX 10 4 0 27
BITMAP
E1C0
E1C0
E1C0
E1C0
ENDCHAR
STARTCHAR 00A9
ENCODING 169
SWIDTH 810 0
DWIDTH 36 0
BBX 33 32 1 0
BITMAP
000FF00000
007FFE0000
01FFFF8000
03F007E000
078001F000
0F00007800
1E03E03C00
3C1FFC1E00
383FFE0E00
787C1F0F00
70F0070700
70E0078700
E0E0038380
E1C0000380
E1C0000380
E1C0000380
E1C0000380
E1C0000380
E1C0000380
E0E0038380
70E0038700
70F0070700
787C0F0F00
383FFE0E00
3C1FFC1E00
1E07F03C00
0F00007800
078001F000
03F007E000
00FFFF8000
007FFF0000
000FF80000
ENDCHAR
STARTCHAR 00AA
ENCODING 170
SWIDTH 292 0
DWIDTH 13 0
BBX 12 15 0 17
BITMAP
0F30
3FF0
7DF0
70F0
6070
E070
E070
E070
E070
E070
7070
70F0
7DF0
3FF0
0F30
ENDCHAR
STARTCHAR 00AB
ENCODING 171
SWIDTH 450 0
DWIDTH 20 0
BBX 16 16 2 4
BITMAP
070F
070E
0E1C
1C3C
3C38
3870
70E0
F0E0
F0E0
70E0
3870
3C38
1C3C
0E1C
070E
070F
ENDCHAR
STARTCHAR 00AC
ENCODING 172
SWIDTH 607 0
DWIDTH 27 0
BBX 22 11 2 5
BITMAP
FFFFFC
FFFFFC
FFFFFC
00001C
00001C
00001C
00001C
00001C
00001C
00001C
00001C
ENDCHAR
STARTCHAR 00AD
ENCODING 173
SWIDTH 337 0
DWIDTH 15 0
BBX 11 3 2 11
BITMAP
FFE0
FFE0
FFE0
ENDCHAR
STARTCHAR 00AE
ENCODING 174
SWIDTH 810 0
DWIDTH 36 0
BBX 33 32 1 0
BITMAP
000FF80000
003FFF0000
00FFFF8000
03F007E000
07C001F000
0F00007800
1E00003C00
3C3FF81E00
383FFE0E00
78381E0F00
7038070700
7038070700
E038070380
E038070380
E0380F0380
E03FFE0380
E03FF80380
E038F00380
E038700380
E038380380
70383C0700
70381C0700
78381E0F00
38380E0E00
3C380F1E00
1E00003C00
0F00007800
07C001F000
03F007E000
00FFFF8000
007FFF0000
000FF80000
ENDCHAR
STARTCHAR 00AF
ENCODING 175
SWIDTH 225 0
DWIDTH 10 0
BBX 13 2 -2 28
BITMAP
FFF8
FFF8
ENDCHAR
STARTCHAR 00B0
ENCODING 176
SWIDTH 405 0
DWIDTH 18 0
BBX 12 12 3 19
BITMAP
0F00
3FC0
71E0
E060
C030
C030
C030
C030
E070
70E0
3FC0
1F80
ENDCHAR
STARTCHAR 00B1
ENCODING 177
SWIDTH 607 0
DWIDTH 27 0
BBX 22 22 2 1
BITMAP
007000
007000
007000
007000
007000
007000
007000
FFFFFC
FFFFFC
FFFFFC
007000
007000
007000
007000
007000
007000
007000
000000
000000
FFFFFC
FFFFFC
FFFFFC
ENDCHAR
STARTCHAR 00B2
ENCODING 178
SWIDTH 337 0
DWIDTH 15 0
BBX 12 19 1 13
BITMAP
1F80
3FE0
7DE0
F070
E070
E070
0070
0070
00E0
01E0
03C0
0780
0F00
1E00
3C00
7800
FFF0
FFF0
FFF0
ENDCHAR
STARTCHAR 00B3
ENCODING 179
SWIDTH 337 0
DWIDTH 15 0
BBX 13 19 1 13
BITMAP
0F80
1FE0
3DE0
7870
7070
7070
0070
00E0
07E0
07E0
03F0
0078
0038
0038
E038
F038
7DF0
3FE0
1FC0
ENDCHAR
STARTCHAR 00B4
ENCODING 180
SWIDTH 225 0
DWIDTH 10 0
BBX 8 6 2 27
BITMAP
0F
1E
1C
38
70
E0
ENDCHAR
STARTCHAR 00B5
ENCODING 181
SWIDTH 495 0
DWIDTH 22 0
BBX 16 33 3 -9
BITMAP
E007
E007
E007
E007
E007
E007
E007
E007
E007
E007
E007
E007
E007
E007
E007
E007
E007
E007
E00F
F00F
F83F
FFF7
FFF7
FFC7
E000
E000
E000
E000
E000
E000
E000
E000
E000
ENDCHAR
STARTCHAR 00B6
ENCODING 182
SWIDTH 607 0
DWIDTH 27 0
BBX 20 36 2 -4
BITMAP
03FFF0
0FFFF0
3FFFF0
7FF070
7FF070
FFF070
FFF070
FFF070
FFF070
FFF070
FFF070
7FF070
7FF070
3FF070
1FF070
0FF070
01F070
007070
007070
007070
007070
007070
007070
007070
007070
007070
007070
007070
007070
007070
007070
007070
007070
007070
007070
007070
ENDCHAR
STARTCHAR 00B7
ENCODING 183
SWIDTH 270 0
DWIDTH 12 0
BBX 4 4 4 9
BITMAP
60
F0
F0
60
ENDCHAR
STARTCHAR 00B8
ENCODING 184
SWIDTH 225 0
DWIDTH 10 0
BBX 9 9 0 -8
BITMAP
0800
1800
3E00
3F00
0380
0380
0380
FF00
7E00
ENDCHAR
STARTCHAR 00B9
ENCODING 185
SWIDTH 337 0
DWIDTH 15 0
BBX 6 19 3 13
BITMAP
FC
FC
1C
1C
1C
1C
1C
1C
1C
1C
1C
1C
1C
1C
1C
1C
1C
1C
1C
ENDCHAR
STARTCHAR 00BA
ENCODING 186
SWIDTH 292 0
DWIDTH 13 0
BBX 13 15 0 17
BITMAP
0F80
3FE0
7FF0
7070
F078
E038
E038
E038
E038
E038
F078
7070
7FF0
3FE0
0F80
ENDCHAR
STARTCHAR 00BB
ENCODING 187
SWIDTH 450 0
DWIDTH 20 0
BBX 16 16 2 4
BITMAP
F0E0
70E0
3870
3C38
1C3C
0E1C
070E
070F
070F
070E
0E1C
1C3C
3C38
3870
70E0
F0E0
ENDCHAR
STARTCHAR 00BC
ENCODING 188
SWIDTH 832 0
DWIDTH 37 0
BBX 31 32 4 0
BITMAP
FC000700
FC000F00
1C000E00
1C001E00
1C001C00
1C003C00
1C003800
1C007800
1C00F000
1C00E000
1C01E000
1C01C000
1C03C000
1C0380F0
1C0781F0
1C0701F0
1C0F03F0
1C0E07F0
1C1E0770
001C0E70
003C0E70
00381C70
00783870
00703870
00F07070
00E07FFE
01E07FFE
01C07FFE
03C00070
03800070
07800070
07000070
ENDCHAR
STARTCHAR 00BD
ENCODING 189
SWIDTH 832 0
DWIDTH 37 0
BBX 30 32 4 0
BITMAP
FC001E00
FC001C00
1C003C00
1C003800
1C007800
1C007000
1C00F000
1C00E000
1C01E000
1C01C000
1C03C000
1C038000
1C078000
1C0707E0
1C0F0FF8
1C0E1E3C
1C1E3C1C
1C1C381C
1C3C381C
0038001C
0078003C
00700038
00F00078
00E000F0
01C001E0
01C003C0
03800780
07800F00
07001E00
0F003FFC
0E003FFC
1E003FFC
ENDCHAR
STARTCHAR 00BE
ENCODING 190
SWIDTH 832 0
DWIDTH 37 0
BBX 34 32 1 0
BITMAP
0FC0007000
1FF000F000
3FF000E000
783801E000
703801C000
703803C000
0038038000
00F0078000
03F0070000
03F00F0000
03F80E0000
00381E0000
001C1C0000
001C3C1E00
E01C783E00
F01C783E00
7EF8F07E00
3FF0F0FE00
1FC1E0EE00
0001C1CE00
0003C1CE00
0003838E00
0007878E00
0007070E00
000F0E0E00
000E0FFFC0
001E0FFFC0
001C0FFFC0
003C000E00
0038000E00
0078000E00
0070000E00
ENDCHAR
STARTCHAR 00BF
ENCODING 191
SWIDTH 450 0
DWIDTH 20 0
BBX 17 32 2 -8
BITMAP
00E000
00E000
00E000
00E000
00E000
000000
000000
000000
00E000
00E000
00E000
00E000
00E000
00E000
01E000
07C000
0F8000
1F0000
3C0000
780000
700000
E00000
E00380
E00380
E00380
E00380
F00780
700700
7C0F00
3FFE00
1FFC00
03F000
ENDCHAR
STARTCHAR 00C0
ENCODING 192
SWIDTH 495 0
DWIDTH 22 0
BBX 22 39 0 0
BITMAP
038000
01C000
00E000
007000
003800
001C00
000000
007C00
00FC00
00FC00
00FC00
00FE00
01CE00
01CE00
01CE00
038700
038700
038700
038780
070380
070380
070380
0703C0
0E01C0
0E01C0
0E01C0
1FFFE0
1FFFE0
1FFFE0
1C00E0
380070
380070
380070
300078
700038
700038
700038
E0003C
E0001C
ENDCHAR
STARTCHAR 00C1
ENCODING 193
SWIDTH 495 0
DWIDTH 22 0
BBX 22 39 0 0
BITMAP
000F00
000E00
001C00
003800
007000
006000
000000
00F800
00F800
00FC00
00DC00
01DC00
01DC00
01CE00
018E00
038E00
038F00
038700
070700
070700
070780
070380
0E0380
0E03C0
0E03C0
0E01C0
1FFFC0
1FFFE0
1FFFE0
1C00E0
3800F0
3800F0
380070
700070
700078
700078
700038
E0003C
E0003C
ENDCHAR
STARTCHAR 00C2
ENCODING 194
SWIDTH 495 0
DWIDTH 22 0
BBX 22 39 0 0
BITMAP
007800
007C00
00CE00
01C700
038380
0701C0
000000
007C00
00FC00
00FC00
00FC00
00EE00
01CE00
01CE00
01CF00
038700
038700
038700
038380
070380
070380
070380
0701C0
0E01C0
0E01C0
0E01C0
1FFFE0
1FFFE0
1FFFE0
1C0070
380070
380070
380070
380038
700038
700038
700038
F0001C
E0001C
ENDCHAR
STARTCHAR 00C3
ENCODING 195
SWIDTH 495 0
DWIDTH 22 0
BBX 22 38 0 0
BITMAP
01C0C0
07F080
067F80
0C0F00
000000
000000
007800
00FC00
00FC00
00FC00
01DC00
01CE00
01CE00
01CE00
038F00
038700
038700
038700
070780
070380
070380
0E0380
0E03C0
0E01C0
0E01C0
1FFFE0
1FFFE0
1FFFE0
1C00E0
3800F0
380070
380070
700070
700038
700038
700038
E0003C
E0001C
ENDCHAR
STARTCHAR 00C4
ENCODING 196
SWIDTH 495 0
DWIDTH 22 0
BBX 22 38 0 0
BITMAP
038700
038700
038700
038700
000000
000000
007800
00FC00
00FC00
00FC00
01DC00
01CE00
01CE00
01CE00
038F00
038700
038700
038700
070780
070380
070380
0E0380
0E01C0
0E01C0
0E01C0
1FFFE0
1FFFE0
1FFFE0
1800E0
380070
380070
380070
300070
700038
700038
700038
E0003C
E0001C
ENDCHAR
STARTCHAR 00C5
ENCODING 197
SWIDTH 495 0
DWIDTH 22 0
BBX 22 43 0 0
BITMAP
007800
00FC00
018600
030300
030300
030300
030300
018600
00FC00
007800
000000
00F800
00FC00
00FC00
00FC00
01DE00
01CE00
01CE00
01CE00
038F00
038700
038700
078700
070380
070380
070380
0E03C0
0E01C0
0E01C0
0E01C0
1FFFE0
1FFFE0
1FFFE0
1800E0
380070
380070
380070
700078
700038
700038
700038
E0003C
E0001C
ENDCHAR
STARTCHAR 00C6
ENCODING 198
SWIDTH 832 0
DWIDTH 37 0
BBX 33 32 0 0
BITMAP
0000FFFF80
0000FFFF80
0001FFFF80
0001F80000
0003B80000
0003B80000
0007380000
0007380000
000E380000
000E380000
001C380000
001C380000
0038380000
0078380000
00703FFF80
00F03FFF80
00E03FFF80
01E0380000
01C0380000
03FFF80000
03FFF80000
07FFF80000
0700380000
0E00380000
0E00380000
1C00380000
1C00380000
3800380000
3800380000
70003FFF80
70003FFF80
E0003FFF80
ENDCHAR
STARTCHAR 00C7
ENCODING 199
SWIDTH 562 0
DWIDTH 25 0
BBX 21 41 1 -9
BITMAP
00FE00
03FF00
07FFC0
0F03E0
1E01E0
3C00F0
380070
700070
700038
700038
700038
E00038
E00000
E00000
E00000
E00000
E00000
E00000
E00000
E00000
E00000
700038
700038
700038
780038
380070
3C0070
1E00E0
0F81E0
0FFFC0
03FF80
00FE00
001000
002000
005C00
00FE00
000F00
000700
000700
03FE00
01F800
ENDCHAR
STARTCHAR 00C8
ENCODING 200
SWIDTH 495 0
DWIDTH 22 0
BBX 15 39 3 0
BITMAP
1C00
1C00
0E00
0700
0380
01C0
0000
FFFE
FFFE
FFFE
E000
E000
E000
E000
E000
E000
E000
E000
E000
E000
E000
FFFE
FFFE
FFFE
E000
E000
E000
E000
E000
E000
E000
E000
E000
E000
E000
E000
FFFE
FFFE
FFFE
ENDCHAR
STARTCHAR 00C9
ENCODING 201
SWIDTH 495 0
DWIDTH 22 0
BBX 16 39 3 0
BITMAP
0078
00E0
00C0
0180
0300
0600
0000
FFFF
FFFF
FFFF
E000
E000
E000
E000
E000
E000
E000
E000
E000
E000
E000
FFFF
FFFF
FFFF
E000
E000
E000
E000
E000
E000
E000
E000
E000
E000
E000
E000
FFFF
FFFF
FFFF
ENDCHAR
STARTCHAR 00CA
ENCODING 202
SWIDTH 495 0
DWIDTH 22 0
BBX 16 39 3 0
BITMAP
0380
07C0
0EE0
1C70
3838
701C
0000
FFFF
FFFF
FFFF
E000
E000
E000
E000
E000
E000
E000
E000
E000
E000
E000
FFFF
FFFF
FFFF
E000
E000
E000
E000
E000
E000
E000
E000
E000
E000
E000
E000
FFFF
FFFF
FFFF
ENDCHAR
STARTCHAR 00CB
ENCODING 203
SWIDTH 495 0
DWIDTH 22 0
BBX 16 38 3 0
BITMAP
1C38
1C38
1C38
1C38
0000
0000
FFFF
FFFF
FFFF
E000
E000
E000
E000
E000
E000
E000
E000
E000
E000
E000
FFFF
FFFF
FFFF
E000
E000
E000
E000
E000
E000
E000
E000
E000
E000
E000
E000
FFFF
FFFF
FFFF
ENDCHAR
STARTCHAR 00CC
ENCODING 204
SWIDTH 225 0
DWIDTH 10 0
BBX 7 39 0 0
BITMAP
E0
70
30
18
0C
0E
00
1C
1C
1C
1C
1C
1C
1C
1C
1C
1C
1C
1C
1C
1C
1C
1C
1C
1C
1C
1C
1C
1C
1C
1C
1C
1C
1C
1C
1C
1C
1C
1C
ENDCHAR
STARTCHAR 00CD
ENCODING 205
SWIDTH 225 0
DWIDTH 10 0
BBX 8 39 2 0
BITMAP
0F
1C
1C
38
70
E0
00
70
70
70
70
70
70
70
70
70
70
70
70
70
70
70
70
70
70
70
70
70
70
70
70
70
70
70
70
70
70
70
70
ENDCHAR
STARTCHAR 00CE
ENCODING 206
SWIDTH 225 0
DWIDTH 10 0
BBX 13 39 -2 0
BITMAP
0700
0F80
1DC0
38E0
7070
E038
0000
0700
0700
0700
0700
0700
0700
0700
0700
0700
0700
0700
0700
0700
0700
0700
0700
0700
0700
0700
0700
0700
0700
0700
0700
0700
0700
0700
0700
0700
0700
0700
0700
ENDCHAR
STARTCHAR 00CF
ENCODING 207
SWIDTH 225 0
DWIDTH 10 0
BBX 10 38 0 0
BITMAP
E1C0
E1C0
E1C0
E1C0
0000
0000
1C00
1C00
1C00
1C00
1C00
1C00
1C00
1C00
1C00
1C00
1C00
1C00
1C00
1C00
1C00
1C00
1C00
1C00
1C00
1C00
1C00
1C00
1C00
1C00
1C00
1C00
1C00
1C00
1C00
1C00
1C00
1C00
ENDCHAR
STARTCHAR 00D0
ENCODING 208
SWIDTH 607 0
DWIDTH 27 0
BBX 26 32 -1 0
BITMAP
0FFF8000
0FFFF000
0FFFF800
0E007C00
0E001E00
0E000F00
0E000700
0E000780
0E000380
0E000380
0E000380
0E0001C0
0E0001C0
0E0001C0
FFFF01C0
FFFF01C0
FFFF01C0
0E0001C0
0E0001C0
0E0001C0
0E0001C0
0E000380
0E000380
0E000380
0E000780
0E000700
0E000F00
0E001E00
0E007C00
0FFFF800
0FFFF000
0FFF8000
ENDCHAR
STARTCHAR 00D1
ENCODING 209
SWIDTH 607 0
DWIDTH 27 0
BBX 20 38 3 0
BITMAP
038180
0FE180
1CFF00
181E00
000000
000000
F00070
F00070
F80070
F80070
FC0070
FC0070
FE0070
EF0070
EF0070
E78070
E78070
E3C070
E3C070
E1E070
E1E070
E0F070
E07870
E07870
E03C70
E03C70
E01E70
E01E70
E00F70
E00F70
E007F0
E007F0
E003F0
E001F0
E001F0
E000F0
E000F0
E00070
ENDCHAR
STARTCHAR 00D2
ENCODING 210
SWIDTH 607 0
DWIDTH 27 0
BBX 24 39 1 0
BITMAP
01C000
00E000
007000
003800
001C00
000E00
000000
007F00
03FFC0
07FFE0
0F01F0
1E0078
3C003C
38001C
78000E
70000E
70000E
700007
E00007
E00007
E00007
E00007
E00007
E00007
E00007
E00007
E00007
E00007
700007
70000E
70000E
78000E
38001C
3C003C
1E0078
0F80F0
07FFE0
03FFC0
00FE00
ENDCHAR
STARTCHAR 00D3
ENCODING 211
SWIDTH 607 0
DWIDTH 27 0
BBX 24 39 1 0
BITMAP
000380
000700
000E00
001C00
003800
007000
000000
007F00
03FFC0
07FFE0
0F01F0
1E0078
3C003C
38001C
78000E
70000E
70000E
700007
E00007
E00007
E00007
E00007
E00007
E00007
E00007
E00007
E00007
E00007
700007
70000E
70000E
78000E
38001C
3C003C
1E0078
0F80F0
07FFE0
03FFC0
00FF00
ENDCHAR
STARTCHAR 00D4
ENCODING 212
SWIDTH 607 0
DWIDTH 27 0
BBX 24 39 1 0
BITMAP
001C00
003E00
007700
00E380
01C1C0
0380E0
000000
007F00
03FFC0
07FFF0
0F01F0
1E0078
3C003C
38001C
78000E
70000E
70000E
700007
E00007
E00007
E00007
E00007
E00007
E00007
E00007
E00007
E00007
E00007
700007
70000E
70000E
78000E
38001C
3C003C
1E0078
0F80F0
07FFE0
03FFC0
007F00
ENDCHAR
STARTCHAR 00D5
ENCODING 213
SWIDTH 607 0
DWIDTH 27 0
BBX 24 38 1 0
BITMAP
01C060
03F860
063FC0
040780
000000
000000
00FE00
03FFC0
07FFE0
0F01F0
1E0078
3C003C
38001C
78000E
70000E
70000E
700007
E00007
E00007
E00007
E00007
E00007
E00007
E00007
E00007
E00007
E00007
700006
70000E
70000E
78000E
38001C
3C003C
1E0078
0F01F0
07FFE0
03FFC0
00FE00
ENDCHAR
STARTCHAR 00D6
ENCODING 214
SWIDTH 607 0
DWIDTH 27 0
BBX 24 38 1 0
BITMAP
01C380
01C380
01C380
01C380
000000
000000
007F00
03FFC0
07FFE0
0F01F0
1E0078
3C003C
38001C
78000E
70000E
70000E
700007
E00007
E00007
E00007
E00007
E00007
E00007
E00007
E00007
E00007
E00007
700007
70000E
70000E
78000E
38001C
3C003C
1E0078
0F80F0
07FFE0
03FFC0
00FE00
ENDCHAR
STARTCHAR 00D7
ENCODING 215
SWIDTH 607 0
DWIDTH 27 0
BBX 22 22 2 1
BITMAP
200010
700038
F8007C
7C00F8
3E01F0
1F03E0
0F87C0
07CF80
03FF00
01FE00
00FC00
00FC00
01FE00
03FF00
07CF80
0F87C0
1F03E0
3E01F0
7C00F8
F8007C
700038
200010
ENDCHAR
STARTCHAR 00D8
ENCODING 216
SWIDTH 607 0
DWIDTH 27 0
BBX 25 34 0 -1
BITMAP
00000380
003F8700
01FFE700
03FFFE00
0780FE00
0F003E00
1E003E00
1C007F00
3C007F00
3800E700
3801E700
3801C780
70038380
70078380
70070380
700E0380
701E0380
701C0380
70380380
70780380
70F00380
70E00380
79C00380
3BC00700
3B800700
3F000700
3F000E00
1E001E00
1F003C00
1FC07800
3FFFF000
31FFE000
707F8000
E0000000
ENDCHAR
STARTCHAR 00D9
ENCODING 217
SWIDTH 562 0
DWIDTH 25 0
BBX 18 39 3 0
BITMAP
0F0000
070000
038000
01C000
00E000
007000
000000
E001C0
E001C0
E001C0
E001C0
E001C0
E001C0
E001C0
E001C0
E001C0
E001C0
E001C0
E001C0
E001C0
E001C0
E001C0
E001C0
E001C0
E001C0
E001C0
E001C0
E001C0
E001C0
E001C0
E001C0
E001C0
E001C0
F003C0
780780
7C0F80
3FFF00
1FFE00
07F800
ENDCHAR
STARTCHAR 00DA
ENCODING 218
SWIDTH 562 0
DWIDTH 25 0
BBX 18 39 3 0
BITMAP
003C00
003800
007000
00E000
01C000
018000
000000
E001C0
E001C0
E001C0
E001C0
E001C0
E001C0
E001C0
E001C0
E001C0
E001C0
E001C0
E001C0
E001C0
E001C0
E001C0
E001C0
E001C0
E001C0
E001C0
E001C0
E001C0
E001C0
E001C0
E001C0
E001C0
E001C0
F003C0
780780
7C0F80
3FFF00
1FFE00
07F000
ENDCHAR
STARTCHAR 00DB
ENCODING 219
SWIDTH 562 0
DWIDTH 25 0
BBX 19 39 3 0
BITMAP
00E000
01F000
03B800
071C00
0E0E00
1C0700
000000
E000E0
E000E0
E000E0
E000E0
E000E0
E000E0
E000E0
E000E0
E000E0
E000E0
E000E0
E000E0
E000E0
E000E0
E000E0
E000E0
E000E0
E000E0
E000E0
E000E0
E000E0
E000E0
E000E0
E000E0
E000E0
E000E0
F001E0
7803C0
7C07C0
3FFF80
1FFF00
03F800
ENDCHAR
STARTCHAR 00DC
ENCODING 220
SWIDTH 562 0
DWIDTH 25 0
BBX 18 38 3 0
BITMAP
0E1C00
0E1C00
0E1C00
0E1C00
000000
000000
E001C0
E001C0
E001C0
E001C0
E001C0
E001C0
E001C0
E001C0
E001C0
E001C0
E001C0
E001C0
E001C0
E001C0
E001C0
E001C0
E001C0
E001C0
E001C0
E001C0
E001C0
E001C0
E001C0
E001C0
E001C0
E001C0
F003C0
780780
7C0F80
3FFF00
1FFE00
07F800
ENDCHAR
STARTCHAR 00DD
ENCODING 221
SWIDTH 495 0
DWIDTH 22 0
BBX 21 39 0 0
BITMAP
000F00
001C00
003800
003000
006000
00C000
000000
F00038
700078
780070
3800F0
3C00E0
1C01E0
1E01C0
1E03C0
0E0380
0F0780
070700
078F00
038E00
03CE00
01DC00
01DC00
00F800
00F800
007000
007000
007000
007000
007000
007000
007000
007000
007000
007000
007000
007000
007000
007000
ENDCHAR
STARTCHAR 00DE
ENCODING 222
SWIDTH 562 0
DWIDTH 25 0
BBX 19 32 3 0
BITMAP
E00000
E00000
E00000
E00000
E00000
E00000
FFF800
FFFE00
FFFF00
E00F80
E003C0
E001C0
E001E0
E000E0
E000E0
E000E0
E000E0
E000E0
E000E0
E001C0
E003C0
E00780
FFFF80
FFFE00
FFF800
E00000
E00000
E00000
E00000
E00000
E00000
E00000
ENDCHAR
STARTCHAR 00DF
ENCODING 223
SWIDTH 562 0
DWIDTH 25 0
BBX 19 32 3 0
BITMAP
03F000
0FFC00
3FFE00
3C1F00
780700
700780
F00380
E00380
E00380
E00380
E00380
E00380
E00700
E00F00
E03E00
E1FC00
E1FE00
E1FF80
E00F80
E003C0
E001C0
E000E0
E000E0
E000E0
F800E0
F800E0
FC01E0
FE01C0
EF07C0
EFFF80
E7FF00
E1FC00
ENDCHAR
STARTCHAR 00E0
ENCODING 224
SWIDTH 495 0
DWIDTH 22 0
BBX 18 33 1 0
BITMAP
0E0000
070000
038000
01C000
00E000
007000
000000
000000
000000
03F1C0
0FF9C0
1FFDC0
3C0FC0
3807C0
7003C0
7003C0
F001C0
E001C0
E001C0
E001C0
E001C0
E001C0
E001C0
E001C0
E001C0
F001C0
7003C0
7003C0
3807C0
3C0FC0
1FFDC0
0FF9C0
03F1C0
ENDCHAR
STARTCHAR 00E1
ENCODING 225
SWIDTH 495 0
DWIDTH 22 0
BBX 18 33 1 0
BITMAP
001C00
003800
007000
00E000
00C000
018000
000000
000000
000000
03F1C0
0FF9C0
1FFDC0
3C0FC0
3807C0
7003C0
7003C0
7001C0
E001C0
E001C0
E001C0
E001C0
E001C0
E001C0
E001C0
E001C0
F001C0
7003C0
7003C0
3807C0
3C0FC0
1FFDC0
0FFDC0
03F1C0
ENDCHAR
STARTCHAR 00E2
ENCODING 226
SWIDTH 495 0
DWIDTH 22 0
BBX 18 33 1 0
BITMAP
01E000
03F000
033800
061C00
0E0E00
1C0F00
000000
000000
000000
03F1C0
0FF9C0
1FFDC0
3C0FC0
3807C0
7003C0
7003C0
F001C0
E001C0
E001C0
E001C0
E001C0
E001C0
E001C0
E001C0
E001C0
F001C0
7003C0
7003C0
3807C0
3C0FC0
1FFDC0
0FF9C0
03F1C0
ENDCHAR
STARTCHAR 00E3
ENCODING 227
SWIDTH 495 0
DWIDTH 22 0
BBX 18 32 1 0
BITMAP
070300
1FE300
19FE00
307E00
000000
000000
000000
000000
03F1C0
0FF9C0
1FFDC0
3C0FC0
3807C0
7003C0
7003C0
F001C0
E001C0
E001C0
E001C0
E001C0
E001C0
E001C0
E001C0
E001C0
F001C0
7003C0
7003C0
3807C0
3C0FC0
1FFDC0
0FF9C0
03F1C0
ENDCHAR
STARTCHAR 00E4
ENCODING 228
SWIDTH 495 0
DWIDTH 22 0
BBX 18 31 1 0
BITMAP
070E00
070E00
070E00
070E00
000000
000000
000000
01F1C0
0FFDC0
1FFDC0
3E0FC0
3807C0
7003C0
7003C0
7001C0
E001C0
E001C0
E001C0
E001C0
E001C0
E001C0
E001C0
E001C0
7001C0
7003C0
7803C0
3807C0
3E0FC0
1FFDC0
0FFDC0
03F1C0
ENDCHAR
STARTCHAR 00E5
ENCODING 229
SWIDTH 495 0
DWIDTH 22 0
BBX 18 36 1 0
BITMAP
00F000
03F800
031C00
060C00
060C00
060C00
071C00
03F800
01F000
000000
000000
000000
03F1C0
0FF9C0
1FFDC0
3C0FC0
3807C0
7003C0
7003C0
7001C0
E001C0
E001C0
E001C0
E001C0
E001C0
E001C0
E001C0
E001C0
7001C0
7003C0
7803C0
3807C0
3E0FC0
1FFDC0
0FFDC0
03F1C0
ENDCHAR
STARTCHAR 00E6
ENCODING 230
SWIDTH 787 0
DWIDTH 35 0
BBX 32 24 1 0
BITMAP
03F1C7E0
0FF9CFF8
1FFDDFFC
3C0FF83C
3807F01E
7003E00E
7003E007
F001C007
E001C007
E001C007
E001FFFF
E001FFFF
E001FFFF
E001C000
E001C000
E001C007
F001E007
7003E007
7003E00E
3807F00E
3C0FFC3C
1FFDDFFC
0FF9DFF0
03F1C7E0
ENDCHAR
STARTCHAR 00E7
ENCODING 231
SWIDTH 450 0
DWIDTH 20 0
BBX 17 33 1 -9
BITMAP
03F000
0FFC00
1FFE00
3C1F00
780700
700780
700380
F00380
E00380
E00000
E00000
E00000
E00000
E00000
E00000
E00380
F00380
700380
700780
780700
3C1F00
1FFE00
0FFC00
07F000
008000
018000
03E000
07F000
003800
003800
083800
0FF000
07E000
ENDCHAR
STARTCHAR 00E8
ENCODING 232
SWIDTH 450 0
DWIDTH 20 0
BBX 17 33 1 0
BITMAP
1E0000
0E0000
070000
038000
01C000
00E000
000000
000000
000000
03F000
0FF800
1FFE00
3C1E00
380F00
700700
700780
600380
E00380
E00380
FFFF80
FFFF80
FFFF80
E00000
E00000
E00380
F00380
700380
700700
380F00
3C1E00
1FFC00
0FF800
03E000
ENDCHAR
STARTCHAR 00E9
ENCODING 233
SWIDTH 450 0
DWIDTH 20 0
BBX 17 33 1 0
BITMAP
003C00
007000
006000
00C000
018000
030000
000000
000000
000000
03F000
0FFC00
1FFE00
3C1E00
380F00
700700
700780
600380
E00380
E00380
FFFF80
FFFF80
FFFF80
E00000
E00000
E00380
700380
700380
780700
380F00
3E1E00
1FFE00
0FF800
03F000
ENDCHAR
STARTCHAR 00EA
ENCODING 234
SWIDTH 450 0
DWIDTH 20 0
BBX 17 33 1 0
BITMAP
01C000
03E000
077000
0E3800
1C1C00
380E00
000000
000000
000000
03F000
0FFC00
1FFE00
3C1E00
380F00
700700
700780
600380
E00380
E00380
FFFF80
FFFF80
FFFF80
E00000
E00000
E00380
700380
700380
780700
380700
3E1E00
1FFE00
0FF800
03F000
ENDCHAR
STARTCHAR 00EB
ENCODING 235
SWIDTH 450 0
DWIDTH 20 0
BBX 17 31 1 0
BITMAP
0E1C00
0E1C00
0E1C00
0E1C00
000000
000000
000000
03F000
0FFC00
1FFE00
3E1E00
380700
700700
700380
600380
E00380
E00380
FFFF80
FFFF80
FFFF80
E00000
E00000
E00380
700380
700380
780700
380700
3E0E00
1FFE00
0FFC00
03F000
ENDCHAR
STARTCHAR 00EC
ENCODING 236
SWIDTH 225 0
DWIDTH 10 0
BBX 7 33 0 0
BITMAP
E0
70
30
18
0C
0E
00
00
00
1C
1C
1C
1C
1C
1C
1C
1C
1C
1C
1C
1C
1C
1C
1C
1C
1C
1C
1C
1C
1C
1C
1C
1C
ENDCHAR
STARTCHAR 00ED
ENCODING 237
SWIDTH 225 0
DWIDTH 10 0
BBX 8 33 2 0
BITMAP
0F
1C
18
30
60
E0
00
00
00
70
70
70
70
70
70
70
70
70
70
70
70
70
70
70
70
70
70
70
70
70
70
70
70
ENDCHAR
STARTCHAR 00EE
ENCODING 238
SWIDTH 225 0
DWIDTH 10 0
BBX 13 33 -2 0
BITMAP
0700
0F80
1DC0
38E0
7070
E038
0000
0000
0000
0700
0700
0700
0700
0700
0700
0700
0700
0700
0700
0700
0700
0700
0700
0700
0700
0700
0700
0700
0700
0700
0700
0700
0700
ENDCHAR
STARTCHAR 00EF
ENCODING 239
SWIDTH 225 0
DWIDTH 10 0
BBX 10 31 0 0
BITMAP
E1C0
E1C0
E1C0
E1C0
0000
0000
0000
1C00
1C00
1C00
1C00
1C00
1C00
1C00
1C00
1C00
1C00
1C00
1C00
1C00
1C00
1C00
1C00
1C00
1C00
1C00
1C00
1C00
1C00
1C00
1C00
ENDCHAR
STARTCHAR 00F0
ENCODING 240
SWIDTH 495 0
DWIDTH 22 0
BBX 19 32 1 0
BITMAP
060100
0F0380
07CF80
03FE00
00FC00
00F800
03FC00
079E00
0F0E00
0C0F00
000700
000380
01FB80
0FFFC0
1FFFC0
3E0FC0
7803E0
7001E0
7001E0
E000E0
E000E0
E000E0
E000E0
E000E0
E000E0
F001C0
7001C0
7803C0
3E0F80
1FFF00
0FFE00
03F800
ENDCHAR
STARTCHAR 00F1
ENCODING 241
SWIDTH 495 0
DWIDTH 22 0
BBX 16 32 3 0
BITMAP
0E06
1F8E
33FC
20F8
0000
0000
0000
0000
E3F0
EFFC
EFFE
FC1E
F80F
F007
E007
E007
E007
E007
E007
E007
E007
E007
E007
E007
E007
E007
E007
E007
E007
E007
E007
E007
ENDCHAR
STARTCHAR 00F2
ENCODING 242
SWIDTH 495 0
DWIDTH 22 0
BBX 19 33 1 0
BITMAP
0F0000
070000
038000
01C000
00E000
007000
000000
000000
000000
03F800
0FFE00
1FFF00
3E0F80
380380
7803C0
7001C0
F001E0
E000E0
E000E0
E000E0
E000E0
E000E0
E000E0
E000E0
E000E0
F001E0
7001C0
7803C0
380380
3E0F80
1FFF00
0FFE00
03F000
ENDCHAR
STARTCHAR 00F3
ENCODING 243
SWIDTH 495 0
DWIDTH 22 0
BBX 19 33 1 0
BITMAP
001E00
003800
007000
006000
00C000
018000
000000
000000
000000
03F800
0FFE00
1FFF00
3E0F80
380380
7803C0
7001C0
7001E0
E000E0
E000E0
E000E0
E000E0
E000E0
E000E0
E000E0
E000E0
F001E0
7001C0
7803C0
380380
3E0F80
1FFF00
0FFE00
03F800
ENDCHAR
STARTCHAR 00F4
ENCODING 244
SWIDTH 495 0
DWIDTH 22 0
BBX 19 33 1 0
BITMAP
00E000
01F000
03B800
071C00
0E0E00
1C0700
000000
000000
000000
03F800
0FFE00
1FFF00
3E0F80
380380
7803C0
7001C0
7001E0
E000E0
E000E0
E000E0
E000E0
E000E0
E000E0
E000E0
E000E0
F001E0
7001C0
7803C0
380380
3E0F80
1FFF00
0FFE00
03F800
ENDCHAR
STARTCHAR 00F5
ENCODING 245
SWIDTH 495 0
DWIDTH 22 0
BBX 18 32 1 0
BITMAP
070300
0FC700
19FE00
107C00
000000
000000
000000
000000
03F000
0FFC00
1FFE00
3C1F00
380780
700380
700380
F003C0
E001C0
E001C0
E001C0
E001C0
E001C0
E001C0
E001C0
E001C0
F003C0
700380
780380
380700
3E0F00
1FFE00
0FFC00
03F000
ENDCHAR
STARTCHAR 00F6
ENCODING 246
SWIDTH 495 0
DWIDTH 22 0
BBX 19 31 1 0
BITMAP
070E00
070E00
070E00
070E00
000000
000000
000000
01F800
0FFE00
1FFF00
3E0F80
3803C0
7803C0
7001C0
7001E0
E000E0
E000E0
E000E0
E000E0
E000E0
E000E0
E000E0
E000E0
7001E0
7001C0
7801C0
3C0380
3E0780
1FFF00
0FFE00
03F800
ENDCHAR
STARTCHAR 00F7
ENCODING 247
SWIDTH 607 0
DWIDTH 27 0
BBX 22 24 2 -1
BITMAP
003000
007C00
00FC00
00FC00
00FC00
007800
000000
000000
000000
000000
000000
FFFFFC
FFFFFC
FFFFFC
000000
000000
000000
000000
007800
00FC00
00FC00
00FC00
00FC00
007800
ENDCHAR
STARTCHAR 00F8
ENCODING 248
SWIDTH 495 0
DWIDTH 22 0
BBX 19 30 1 -3
BITMAP
0000E0
0001C0
0001C0
03FB80
0FFF80
1FFF00
3E0F80
380FC0
781FC0
701DC0
7039E0
E038E0
E070E0
E070E0
E0E0E0
E1C0E0
E1C0E0
E380E0
E380E0
F701E0
7E01C0
7E03C0
3C0380
3E0F80
3FFF00
3FFE00
73F800
600000
E00000
C00000
ENDCHAR
STARTCHAR 00F9
ENCODING 249
SWIDTH 495 0
DWIDTH 22 0
BBX 16 33 3 0
BITMAP
1C00
0E00
0700
0380
01C0
00E0
0000
0000
0000
E007
E007
E007
E007
E007
E007
E007
E007
E007
E007
E007
E007
E007
E007
E007
E007
E007
E007
E00F
F00F
783F
7FF7
3FF7
0FC7
ENDCHAR
STARTCHAR 00FA
ENCODING 250
SWIDTH 495 0
DWIDTH 22 0
BBX 16 33 3 0
BITMAP
0038
0070
00E0
01C0
0380
0300
0000
0000
0000
E007
E007
E007
E007
E007
E007
E007
E007
E007
E007
E007
E007
E007
E007
E007
E007
E007
E007
E00F
F00F
783F
7FF7
3FF7
0FC7
ENDCHAR
STARTCHAR 00FB
ENCODING 251
SWIDTH 495 0
DWIDTH 22 0
BBX 17 33 3 0
BITMAP
01E000
03E000
077000
0E3800
1C1C00
380E00
000000
000000
000000
E00380
E00380
E00380
E00380
E00380
E00380
E00380
E00380
E00380
E00380
E00380
E00380
E00380
E00380
E00380
E00380
E00380
E00380
F00780
F00F80
781F80
7FFB80
3FF380
0FE380
ENDCHAR
STARTCHAR 00FC
ENCODING 252
SWIDTH 495 0
DWIDTH 22 0
BBX 16 31 3 0
BITMAP
1C38
1C38
1C38
1C38
0000
0000
0000
E007
E007
E007
E007
E007
E007
E007
E007
E007
E007
E007
E007
E007
E007
E007
E007
E007
E007
E00F
F00F
783F
7FF7
3FF7
0FC7
ENDCHAR
STARTCHAR 00FD
ENCODING 253
SWIDTH 450 0
DWIDTH 20 0
BBX 19 42 0 -9
BITMAP
001E00
003800
003000
006000
00C000
018000
000000
000000
000000
E001E0
F001E0
7001C0
7003C0
7803C0
380380
380380
3C0780
1C0700
1C0700
1C0F00
0E0E00
0E0E00
0E1E00
071C00
071C00
071C00
073800
03B800
03B800
03F000
01F000
01F000
01E000
00E000
01E000
01C000
01C000
03C000
038000
038000
078000
070000
ENDCHAR
STARTCHAR 00FE
ENCODING 254
SWIDTH 495 0
DWIDTH 22 0
BBX 17 41 3 -9
BITMAP
E00000
E00000
E00000
E00000
E00000
E00000
E00000
E00000
E3F000
EFF800
FFFC00
FC1E00
F80F00
F00700
F00700
E00380
E00380
E00380
E00380
E00380
E00380
E00380
E00380
E00380
E00380
F00700
F00700
F80F00
FC1E00
FFFC00
EFF800
E3E000
E00000
E00000
E00000
E00000
E00000
E00000
E00000
E00000
E00000
ENDCHAR
STARTCHAR 00FF
ENCODING 255
SWIDTH 450 0
DWIDTH 20 0
BBX 19 40 0 -9
BITMAP
070E00
070E00
070E00
070E00
000000
000000
000000
F000E0
F000E0
7001C0
7801C0
7801C0
380380
3C0380
3C0380
1C0700
1C0700
1E0700
0E0E00
0E0E00
0F0E00
071C00
071C00
071C00
079800
03B800
03B800
03F000
01F000
01F000
01E000
00E000
01E000
01C000
01C000
03C000
038000
038000
078000
070000
ENDCHAR
STARTCHAR 0131
ENCODING 305
SWIDTH 225 0
DWIDTH 10 0
BBX 3 24 3 0
BITMAP
E0
E0
E0
E0
E0
E0
E0
E0
E0
E0
E0
E0
E0
E0
E0
E0
E0
E0
E0
E0
E0
E0
E0
E0
ENDCHAR
STARTCHAR 0141
ENCODING 321
SWIDTH 450 0
DWIDTH 20 0
BBX 18 32 0 0
BITMAP
1C0000
1C0000
1C0000
1C0000
1C0000
1C0000
1C0000
1C0000
1C0000
1C0000
1C0000
1C0C00
1C7C00
1DFC00
1FF000
3FC000
FE0000
FC0000
FC0000
1C0000
1C0000
1C0000
1C0000
1C0000
1C0000
1C0000
1C0000
1C0000
1C0000
1FFFC0
1FFFC0
1FFFC0
ENDCHAR
STARTCHAR 0142
ENCODING 322
SWIDTH 225 0
DWIDTH 10 0
BBX 11 32 -1 0
BITMAP
0E00
0E00
0E00
0E00
0E00
0E00
0E00
0E00
0E00
0E00
0E20
0EE0
0FE0
0FC0
1F80
7E00
FE00
EE00
8E00
0E00
0E00
0E00
0E00
0E00
0E00
0E00
0E00
0E00
0E00
0E00
0E00
0E00
ENDCHAR
STARTCHAR 0152
ENCODING 338
SWIDTH 945 0
DWIDTH 42 0
BBX 37 32 1 0
BITMAP
007F07FFF8
03FFC7FFF8
07FFF7FFF8
0F81FF0000
1E007F0000
3C003F0000
38003F0000
78001F0000
70000F0000
70000F0000
70000F0000
E000070000
E000070000
E000070000
E00007FFF8
E00007FFF8
E00007FFF8
E000070000
E000070000
E000070000
E000070000
70000F0000
70000F0000
70000F0000
78000F0000
38001F0000
3C003F0000
1E007F0000
0F80FF0000
07FFF7FFF8
03FFE7FFF8
00FF07FFF8
ENDCHAR
STARTCHAR 0153
ENCODING 339
SWIDTH 787 0
DWIDTH 35 0
BBX 32 24 1 0
BITMAP
03F007E0
0FFC1FF8
1FFE3FFC
3E0F783C
3807701E
7803E00E
7003E00F
F003C007
E001C007
E001C007
E001FFFF
E001FFFF
E001FFFF
E001C000
E001C000
E001C007
7003E007
7003E007
7803E00E
3807F00E
3E0F7C3C
1FFE3FFC
0FFC1FF0
03F007E0
ENDCHAR
STARTCHAR 0160
ENCODING 352
SWIDTH 495 0
DWIDTH 22 0
BBX 19 39 1 0
BITMAP
1C0F00
0C1E00
063C00
073800
03F000
01E000
000000
03F000
1FFE00
3FFF00
7C0F80
700780
F00380
E001C0
E001C0
E001C0
E00000
F00000
700000
7C0000
3F0000
1FF000
07FC00
01FF00
003F80
0007C0
0003C0
0001E0
0000E0
E000E0
E000E0
E000E0
E000E0
7001C0
7001C0
3C0780
3FFF00
1FFE00
07F800
ENDCHAR
STARTCHAR 0161
ENCODING 353
SWIDTH 450 0
DWIDTH 20 0
BBX 16 33 1 0
BITMAP
380E
1C1C
0E38
0770
03E0
01C0
0000
0000
0000
07F0
1FFC
3FFE
3C1E
780F
7007
7007
7000
7800
3E00
3FC0
1FF8
07FC
007E
001F
000F
0007
E007
E007
F00F
781E
3FFC
1FF8
07E0
ENDCHAR
STARTCHAR 0178
ENCODING 376
SWIDTH 495 0
DWIDTH 22 0
BBX 21 38 1 0
BITMAP
070E00
070E00
070E00
070E00
000000
000000
E00078
F00070
7000F0
7800E0
3801E0
3C01E0
1C01C0
1E03C0
0E0380
0F0780
070700
078F00
038E00
03DE00
01DC00
01DC00
00F800
00F800
007000
007000
007000
007000
007000
007000
007000
007000
007000
007000
007000
007000
007000
007000
ENDCHAR
STARTCHAR 017D
ENCODING 381
SWIDTH 450 0
DWIDTH 20 0
BBX 18 39 1 0
BITMAP
1C0F00
0E1E00
061C00
033800
03F000
01E000
000000
FFFFC0
FFFFC0
FFFFC0
000780
000780
000F00
000F00
001E00
001E00
003C00
003C00
007800
007800
00F000
00F000
01E000
01E000
03C000
03C000
078000
078000
0F0000
0F0000
1E0000
1E0000
3C0000
380000
780000
F00000
FFFFC0
FFFFC0
FFFFC0
ENDCHAR
STARTCHAR 017E
ENCODING 382
SWIDTH 450 0
DWIDTH 20 0
BBX 17 33 1 0
BITMAP
1C0F00
0E1E00
061C00
033800
03F000
01E000
000000
000000
000000
7FFF80
7FFF80
7FFF80
000780
000F00
001E00
003E00
003C00
007800
00F800
00F000
01E000
03C000
03C000
078000
0F0000
0F0000
1E0000
3C0000
780000
780000
FFFF80
FFFF80
FFFF80
ENDCHAR
STARTCHAR 0192
ENCODING 402
SWIDTH 562 0
DWIDTH 25 0
BBX 22 41 1 -9
BITMAP
0000FC
0003FC
0007FC
000F00
000E00
001C00
001C00
001800
001800
003800
003800
003800
003800
0FFFE0
0FFFE0
0FFFE0
003800
003800
003800
003800
003800
003800
003800
003800
003800
003800
007000
007000
007000
007000
007000
007000
007000
00E000
00E000
00E000
01C000
83C000
FF8000
FF0000
FC0000
ENDCHAR
STARTCHAR 02C6
ENCODING 710
SWIDTH 225 0
DWIDTH 10 0
BBX 13 6 -2 27
BITMAP
0700
0F80
1DC0
38E0
7070
E038
ENDCHAR
STARTCHAR 02C7
ENCODING 711
SWIDTH 225 0
DWIDTH 10 0
BBX 13 6 -2 27
BITMAP
E038
7070
38E0
1DC0
0F80
0700
ENDCHAR
STARTCHAR 02C9
ENCODING 713
SWIDTH 225 0
DWIDTH 10 0
BBX 13 2 -2 28
BITMAP
FFF8
FFF8
ENDCHAR
STARTCHAR 02D8
ENCODING 728
SWIDTH 225 0
DWIDTH 10 0
BBX 12 6 -1 27
BITMAP
C030
C030
C030
70E0
3FC0
1F00
ENDCHAR
STARTCHAR 02D9
ENCODING 729
SWIDTH 225 0
DWIDTH 10 0
BBX 3 4 3 27
BITMAP
E0
E0
E0
E0
ENDCHAR
STARTCHAR 02DA
ENCODING 730
SWIDTH 225 0
DWIDTH 10 0
BBX 10 9 0 27
BITMAP
1E00
7F80
6180
C0C0
C0C0
C0C0
6180
7F80
1E00
ENDCHAR
STARTCHAR 02DB
ENCODING 731
SWIDTH 225 0
DWIDTH 10 0
BBX 10 10 0 -9
BITMAP
0180
0E00
3800
7000
E000
E000
E040
F1C0
7F80
3E00
ENDCHAR
STARTCHAR 02DC
ENCODING 732
SWIDTH 225 0
DWIDTH 10 0
BBX 13 4 -1 27
BITMAP
3818
7E18
CFF0
83F0
ENDCHAR
STARTCHAR 02DD
ENCODING 733
SWIDTH 225 0
DWIDTH 10 0
BBX 13 6 -1 27
BITMAP
0E78
1C70
38E0
31C0
6380
C700
ENDCHAR
STARTCHAR 03BC
ENCODING 956
SWIDTH 495 0
DWIDTH 22 0
BBX 16 33 3 -9
BITMAP
E007
E007
E007
E007
E007
E007
E007
E007
E007
E007
E007
E007
E007
E007
E007
E007
E007
E007
E00F
F00F
F83F
FFF7
FFF7
FFC7
E000
E000
E000
E000
E000
E000
E000
E000
E000
ENDCHAR
STARTCHAR 2013
ENCODING 8211
SWIDTH 495 0
DWIDTH 22 0
BBX 22 2 0 11
BITMAP
FFFFFC
FFFFFC
ENDCHAR
STARTCHAR 2014
ENCODING 8212
SWIDTH 990 0
DWIDTH 44 0
BBX 44 2 0 11
BITMAP
FFFFFFFFFFF0
FFFFFFFFFFF0
ENDCHAR
STARTCHAR 2018
ENCODING 8216
SWIDTH 225 0
DWIDTH 10 0
BBX 8 10 1 22
BITMAP
E0
70
70
38
38
1C
1C
0E
0E
07
ENDCHAR
STARTCHAR 2019
ENCODING 8217
SWIDTH 225 0
DWIDTH 10 0
BBX 8 10 1 22
BITMAP
07
0E
0C
1C
18
38
30
70
60
E0
ENDCHAR
STARTCHAR 201A
ENCODING 8218
SWIDTH 225 0
DWIDTH 10 0
BBX 8 10 1 -5
BITMAP
07
0E
0E
1C
1C
38
38
70
70
E0
ENDCHAR
STARTCHAR 201C
ENCODING 8220
SWIDTH 337 0
DWIDTH 15 0
BBX 13 10 1 22
BITMAP
E700
7380
7380
39C0
39C0
1CE0
1CE0
0E70
0E70
0738
ENDCHAR
STARTCHAR 201D
ENCODING 8221
SWIDTH 337 0
DWIDTH 15 0
BBX 13 10 1 22
BITMAP
0738
0E70
0E60
1CE0
1CC0
39C0
3980
7380
7300
E700
ENDCHAR
STARTCHAR 201E
ENCODING 8222
SWIDTH 337 0
DWIDTH 15 0
BBX 13 10 1 -5
BITMAP
0738
0E70
0E70
1CE0
1CE0
39C0
39C0
7380
7380
E700
ENDCHAR
STARTCHAR 2020
ENCODING 8224
SWIDTH 450 0
DWIDTH 20 0
BBX 15 36 2 -4
BITMAP
0380
0380
0180
0180
0180
0180
0180
0180
F18E
FFFE
F9BE
0180
0180
0180
0180
0180
0180
03C0
0380
0380
0380
0380
0180
0180
0180
0180
0180
0180
0180
0180
0180
0180
0180
0180
0180
0180
ENDCHAR
STARTCHAR 2021
ENCODING 8225
SWIDTH 450 0
DWIDTH 20 0
BBX 15 36 2 -4
BITMAP
0380
0380
0380
0380
0380
0380
0100
0100
E10E
FFFE
F93E
0100
0100
0380
0380
0380
0380
0380
0380
0380
0380
0380
0380
0100
0102
FFFE
FFFE
8102
0100
0100
0380
0380
0380
0380
0380
0380
ENDCHAR
STARTCHAR 2022
ENCODING 8226
SWIDTH 495 0
DWIDTH 22 0
BBX 16 16 3 8
BITMAP
07E0
1FF8
3FFC
7FFE
7FFE
FFFF
FFFF
FFFF
FFFF
FFFF
FFFF
7FFE
7FFE
3FFC
1FF8
07E0
ENDCHAR
STARTCHAR 2026
ENCODING 8230
SWIDTH 990 0
DWIDTH 44 0
BBX 32 4 6 1
BITMAP
E0038007
E0038007
E0038007
E0038007
ENDCHAR
STARTCHAR 2030
ENCODING 8240
SWIDTH 990 0
DWIDTH 44 0
BBX 41 32 1 0
BITMAP
0F8038000000
3FE038000000
78F070000000
603070000000
E03860000000
C018E0000000
C018E0000000
C019C0000000
C019C0000000
C01980000000
E03B80000000
603380000000
78F700000000
3FE700000000
0F8600000000
000E00000000
000E00000000
001C3E00FC00
001CFF81FE00
0019E3C38700
003980C30300
003B80E70380
007300660180
007300660180
006300660180
00E300660180
00E300660180
01C380E70380
01C180C30300
0181E3C38700
0380FF81FE00
03803E007800
ENDCHAR
STARTCHAR 2039
ENCODING 8249
SWIDTH 270 0
DWIDTH 12 0
BBX 9 16 2 4
BITMAP
0780
0700
0E00
1E00
1C00
3800
7000
F000
7000
7000
3800
1C00
1E00
0E00
0700
0780
ENDCHAR
STARTCHAR 203A
ENCODING 8250
SWIDTH 270 0
DWIDTH 12 0
BBX 9 16 2 4
BITMAP
F000
7000
3800
3C00
1E00
0E00
0700
0780
0780
0700
0E00
1E00
3C00
3800
7000
F000
ENDCHAR
STARTCHAR 2044
ENCODING 8260
SWIDTH 157 0
DWIDTH 7 0
BBX 22 32 -7 0
BITMAP
00003C
000038
000078
0000F0
0000E0
0001E0
0001C0
0003C0
000380
000780
000F00
000E00
001E00
001C00
003C00
003800
007800
00F000
00E000
01E000
01C000
03C000
038000
078000
0F0000
0E0000
1E0000
1C0000
3C0000
380000
780000
F00000
ENDCHAR
STARTCHAR 20AC
ENCODING 8364
SWIDTH 562 0
DWIDTH 25 0
BBX 21 32 1 0
BITMAP
003F80
00FFF0
01FFF8
03F1F8
03C018
078008
070000
0E0000
0E0000
0E0000
1C0000
1C0000
7FFFE0
7FFFC0
FFFFC0
1C0000
1C0000
1C0000
7FFF00
7FFF00
FFFF00
1C0000
0C0000
0E0000
0E0000
0F0000
070008
07C018
03F0F8
01FFF8
00FFF0
003F80
ENDCHAR
STARTCHAR 2122
ENCODING 8482
SWIDTH 990 0
DWIDTH 44 0
BBX 37 17 1 14
BITMAP
FFFE7C00F8
FFFE7C00F8
FFFE7E01F8
03807E01F8
03807703B8
03807703B8
03807703B8
0380738738
0380738738
038071CE38
038071CE38
038071EE38
038070FC38
038070FC38
0380707838
0380707838
0380707838
ENDCHAR
STARTCHAR 2212
ENCODING 8722
SWIDTH 607 0
DWIDTH 27 0
BBX 22 3 2 9
BITMAP
FFFFFC
FFFFFC
FFFFFC
ENDCHAR
STARTCHAR 2215
ENCODING 8725
SWIDTH 157 0
DWIDTH 7 0
BBX 22 32 -7 0
BITMAP
00003C
000038
000078
0000F0
0000E0
0001E0
0001C0
0003C0
000380
000780
000F00
000E00
001E00
001C00
003C00
003800
007800
00F000
00E000
01E000
01C000
03C000
038000
078000
0F0000
0E0000
1E0000
1C0000
3C0000
380000
780000
F00000
ENDCHAR
STARTCHAR 2219
ENCODING 8729
SWIDTH 270 0
DWIDTH 12 0
BBX 4 4 4 9
BITMAP
60
F0
F0
60
ENDCHAR
STARTCHAR FB01
ENCODING 64257
SWIDTH 450 0
DWIDTH 20 0
BBX 16 32 0 0
BITMAP
03C7
0FC7
0FC7
1C07
1C00
1C00
1C00
1C00
FFC7
FFC7
FFC7
1C07
1C07
1C07
1C07
1C07
1C07
1C07
1C07
1C07
1C07
1C07
1C07
1C07
1C07
1C07
1C07
1C07
1C07
1C07
1C07
1C07
ENDCHAR
STARTCHAR FB02
ENCODING 64258
SWIDTH 450 0
DWIDTH 20 0
BBX 16 32 0 0
BITMAP
03C7
0FC7
0FC7
1C07
1C07
1C07
1C07
1C07
FFC7
FFC7
FFC7
1C07
1C07
1C07
1C07
1C07
1C07
1C07
1C07
1C07
1C07
1C07
1C07
1C07
1C07
1C07
1C07
1C07
1C07
1C07
1C07
1C07
ENDCHAR
ENDFONT
